<?xml version="1.0" encoding="UTF-8" standalone="no"?>
<!DOCTYPE svg PUBLIC "-//W3C//DTD SVG 1.1//EN" "http://www.w3.org/Graphics/SVG/1.1/DTD/svg11.dtd">
<svg xmlns="http://www.w3.org/2000/svg" xmlns:xlink="http://www.w3.org/1999/xlink" version="1.1" width="5333.333pt" height="3000pt" viewBox="0 0 5333.333 3000">
<g enable-background="new">
<g id="Layer-1" data-name="Capa 1">
<path transform="matrix(2.7777777,0,0,-2.7777777,0,3000)" d="M 0 0 L 1920 0 L 1920 1080 L 0 1080 Z " fill="#ffffff"/>
<clipPath id="cp0">
<path transform="matrix(2.7777777,0,0,-2.7777777,0,3000)" d="M 0 1080 L 1920 1080 L 1920 0 L 0 0 Z "/>
</clipPath>
<g clip-path="url(#cp0)">
<path transform="matrix(2.7777777,0,0,-2.7777777,1621.7453,1302.0007)" d="M 0 0 C 2.104 0 3.158 -1.502 3.158 -4.5 L 3.158 -95.516 C 3.158 -100.971 3.468 -105.506 4.091 -109.117 C 4.712 -112.731 5.741 -115.595 7.176 -117.707 C 8.612 -119.824 10.549 -121.321 12.989 -122.207 C 15.43 -123.095 18.515 -123.537 22.246 -123.537 L 62.003 -123.537 C 65.734 -123.537 68.82 -123.095 71.26 -122.207 C 73.699 -121.321 75.637 -119.824 77.072 -117.707 C 78.507 -115.595 79.512 -112.731 80.086 -109.117 C 80.66 -105.506 80.947 -100.971 80.947 -95.516 L 80.947 -4.5 C 80.947 -1.502 82 0 84.105 0 L 99.749 0 C 101.853 0 102.906 -1.502 102.906 -4.5 L 102.906 -89.177 C 102.906 -98.994 102.189 -107.347 100.753 -114.231 C 99.318 -121.12 96.997 -126.708 93.792 -131.004 C 90.585 -135.299 86.423 -138.402 81.306 -140.31 C 76.186 -142.22 69.99 -143.172 62.719 -143.172 L 21.385 -143.172 C 14.112 -143.172 7.942 -142.22 2.871 -140.31 C -2.202 -138.402 -6.339 -135.299 -9.544 -131.004 C -12.751 -126.708 -15.094 -121.12 -16.577 -114.231 C -18.061 -107.347 -18.801 -98.994 -18.801 -89.177 L -18.801 -4.5 C -18.801 -1.502 -17.703 0 -15.501 0 Z " fill="#346469"/>
<path transform="matrix(2.7777777,0,0,-2.7777777,2020.8158,1522.9744)" d="M 0 0 L 54.969 0 C 59.849 0 63.293 1.985 65.303 5.956 C 67.312 9.924 68.317 15.971 68.317 24.092 L 68.317 34.378 C 68.317 42.499 67.312 48.543 65.303 52.514 C 63.293 56.481 59.849 58.47 54.969 58.47 L 1.866 58.47 C .621 58.47 0 57.387 0 55.221 Z M 59.419 79.55 C 70.42 79.55 78.314 76.003 83.1 68.914 C 87.883 61.823 90.276 51.325 90.276 37.416 L 90.276 22.281 C 90.276 8.373 87.883 -2.129 83.1 -9.217 C 78.314 -16.309 70.42 -19.852 59.419 -19.852 L 0 -19.852 L 0 -59.123 C 0 -62.124 -1.053 -63.622 -3.157 -63.622 L -18.658 -63.622 C -20.86 -63.622 -21.959 -62.124 -21.959 -59.123 L -21.959 73.414 C -21.959 77.505 -20.524 79.55 -17.654 79.55 Z " fill="#7cac54"/>
<path transform="matrix(2.7777777,0,0,-2.7777777,2511.185,1387.7941)" d="M 0 0 C 1.723 0 2.583 -1.226 2.583 -3.681 L 2.583 -20.861 C 2.583 -23.316 1.723 -24.542 0 -24.542 L -38.177 -24.542 C -41.24 -24.542 -43.774 -24.92 -45.783 -25.667 C -47.793 -26.42 -49.397 -27.646 -50.591 -29.35 C -51.789 -31.056 -52.626 -33.373 -53.104 -36.304 C -53.583 -39.237 -53.82 -42.817 -53.82 -47.042 L -53.82 -107.788 C -53.82 -110.789 -54.875 -112.287 -56.978 -112.287 L -71.044 -112.287 C -73.246 -112.287 -74.345 -110.789 -74.345 -107.788 L -74.345 -41.52 C -74.345 -34.156 -73.771 -27.851 -72.623 -22.601 C -71.475 -17.352 -69.586 -13.057 -66.953 -9.714 C -64.323 -6.375 -60.831 -3.921 -56.476 -2.351 C -52.124 -.786 -46.694 0 -40.186 0 Z "/>
<path transform="matrix(2.7777777,0,0,-2.7777777,2603.6749,1570.7344)" d="M 0 0 C 0 -4.366 .238 -7.977 .718 -10.84 C 1.195 -13.705 2.032 -15.989 3.23 -17.692 C 4.424 -19.399 6.028 -20.625 8.038 -21.373 C 10.046 -22.125 12.581 -22.498 15.643 -22.498 L 52.242 -22.498 C 55.4 -22.498 57.983 -22.125 59.992 -21.373 C 62.002 -20.625 63.603 -19.399 64.8 -17.692 C 65.996 -15.989 66.832 -13.705 67.312 -10.84 C 67.79 -7.977 68.03 -4.366 68.03 0 L 68.03 19.431 C 68.03 23.655 67.79 27.203 67.312 30.065 C 66.832 32.93 65.996 35.247 64.8 37.021 C 63.603 38.79 62.002 40.018 59.992 40.702 C 57.983 41.383 55.4 41.724 52.242 41.724 L 15.643 41.724 C 12.581 41.724 10.046 41.383 8.038 40.702 C 6.028 40.018 4.424 38.79 3.23 37.021 C 2.032 35.247 1.195 32.93 .718 30.065 C .238 27.203 0 23.655 0 19.431 Z M 54.252 65.858 C 60.661 65.858 66.068 65.073 70.47 63.507 C 74.869 61.938 78.385 59.483 81.019 56.145 C 83.649 52.802 85.539 48.506 86.688 43.258 C 87.836 38.008 88.41 31.702 88.41 24.339 L 88.41 -5.113 C 88.41 -12.476 87.836 -18.785 86.688 -24.033 C 85.539 -29.283 83.649 -33.579 81.019 -36.918 C 78.385 -40.261 74.869 -42.68 70.47 -44.179 C 66.068 -45.681 60.661 -46.428 54.252 -46.428 L 13.635 -46.428 C 7.127 -46.428 1.698 -45.681 -2.655 -44.179 C -7.01 -42.68 -10.501 -40.261 -13.132 -36.918 C -15.765 -33.579 -17.654 -29.283 -18.801 -24.033 C -19.949 -18.785 -20.524 -12.476 -20.524 -5.113 L -20.524 24.339 C -20.524 31.702 -19.949 38.008 -18.801 43.258 C -17.654 48.506 -15.765 52.802 -13.132 56.145 C -10.501 59.483 -7.01 61.938 -2.655 63.507 C 1.698 65.073 7.127 65.858 13.635 65.858 Z "/>
<path transform="matrix(2.7777777,0,0,-2.7777777,2968.4603,1302.0007)" d="M 0 0 C 2.297 0 4.209 -.138 5.741 -.41 C 7.27 -.685 8.612 -1.263 9.76 -2.149 C 10.907 -3.037 12.007 -4.263 13.061 -5.83 C 14.112 -7.399 15.308 -9.479 16.648 -12.068 L 70.039 -111.88 C 70.42 -112.834 71.044 -113.311 71.906 -113.311 L 73.197 -113.311 C 73.962 -113.311 74.345 -112.631 74.345 -111.265 L 74.345 -4.5 C 74.345 -1.502 75.396 0 77.503 0 L 92.573 0 C 94.676 0 95.73 -1.502 95.73 -4.5 L 95.73 -121.902 C 95.73 -130.22 94.676 -135.845 92.573 -138.776 C 90.467 -141.709 87.213 -143.172 82.813 -143.172 L 70.47 -143.172 C 68.268 -143.172 66.426 -143.039 64.944 -142.764 C 63.46 -142.493 62.146 -141.946 60.997 -141.127 C 59.849 -140.31 58.724 -139.117 57.625 -137.548 C 56.524 -135.983 55.256 -133.835 53.821 -131.105 L .287 -31.294 C -.287 -30.341 -.911 -29.862 -1.579 -29.862 L -2.871 -29.862 C -3.637 -29.862 -4.018 -30.546 -4.018 -31.907 L -4.018 -138.673 C -4.018 -141.675 -5.073 -143.172 -7.176 -143.172 L -22.246 -143.172 C -24.448 -143.172 -25.547 -141.675 -25.547 -138.673 L -25.547 -21.272 C -25.547 -12.956 -24.495 -7.331 -22.39 -4.398 C -20.286 -1.468 -17.032 0 -12.63 0 Z " fill="#7cac54"/>
<path transform="matrix(2.7777777,0,0,-2.7777777,3489.5274,1637.2075)" d="M 0 0 C 1.53 0 2.607 .512 3.23 1.533 C 3.851 2.557 4.162 4.362 4.162 6.954 L 4.162 24.953 L -48.367 24.953 C -51.334 24.953 -53.415 24.099 -54.611 22.397 C -55.808 20.69 -56.404 18.203 -56.404 14.931 L -56.404 10.635 C -56.404 6.954 -55.808 4.26 -54.611 2.557 C -53.415 .85 -51.334 0 -48.367 0 Z M -9.472 89.789 C -3.063 89.789 2.343 89.003 6.746 87.437 C 11.146 85.868 14.662 83.413 17.295 80.075 C 19.925 76.732 21.816 72.436 22.964 67.188 C 24.111 61.938 24.686 55.633 24.686 48.269 L 24.686 -6.136 C 24.686 -9.409 24.518 -12.103 24.184 -14.215 C 23.848 -16.331 23.274 -17.999 22.461 -19.226 C 21.648 -20.453 20.571 -21.306 19.233 -21.783 C 17.891 -22.262 16.169 -22.498 14.065 -22.498 L -54.251 -22.498 C -58.463 -22.498 -61.979 -21.921 -64.8 -20.76 C -67.623 -19.604 -69.895 -17.864 -71.618 -15.545 C -73.34 -13.228 -74.56 -10.227 -75.278 -6.545 C -75.995 -2.863 -76.354 1.499 -76.354 6.545 L -76.354 16.362 C -76.354 20.587 -75.995 24.371 -75.278 27.714 C -74.56 31.053 -73.34 33.882 -71.618 36.202 C -69.895 38.518 -67.623 40.258 -64.8 41.417 C -61.979 42.575 -58.463 43.157 -54.251 43.157 L 4.162 43.157 L 4.162 47.043 C 4.162 50.314 3.922 53.108 3.444 55.428 C 2.965 57.745 2.153 59.621 1.005 61.052 C -.143 62.484 -1.722 63.539 -3.732 64.223 C -5.74 64.904 -8.324 65.246 -11.481 65.246 L -71.474 65.246 C -73.197 65.246 -74.057 66.473 -74.057 68.928 L -74.057 86.108 C -74.057 88.562 -73.197 89.789 -71.474 89.789 Z "/>
<path transform="matrix(2.7777777,0,0,-2.7777777,3627.4644,1387.7941)" d="M 0 0 L 0 27 C 0 29.997 1.051 31.499 3.158 31.499 L 17.365 31.499 C 19.469 31.499 20.523 29.997 20.523 27 L 20.523 0 L 45.64 0 C 47.362 0 48.223 -1.226 48.223 -3.681 L 48.223 -20.453 C 48.223 -22.906 47.362 -24.134 45.64 -24.134 L 20.523 -24.134 L 20.523 -71.586 C 20.523 -77.313 21.335 -81.505 22.963 -84.165 C 24.589 -86.823 27.793 -88.153 32.58 -88.153 L 46.502 -88.153 C 48.223 -88.153 49.085 -89.38 49.085 -91.834 L 49.085 -108.606 C 49.085 -111.061 48.223 -112.287 46.502 -112.287 L 29.135 -112.287 C 23.394 -112.287 18.659 -111.539 14.926 -110.038 C 11.195 -108.539 8.203 -106.151 5.956 -102.879 C 3.707 -99.606 2.152 -95.381 1.292 -90.197 C .431 -85.018 0 -78.815 0 -71.586 L 0 -24.134 L -13.635 -24.134 C -15.357 -24.134 -16.219 -22.906 -16.219 -20.453 L -16.219 -3.681 C -16.219 -1.226 -15.357 0 -13.635 0 Z "/>
</g>
</g>
</g>
</svg>
