<?xml version="1.0" encoding="UTF-8" standalone="no"?>
<!DOCTYPE svg PUBLIC "-//W3C//DTD SVG 1.1//EN" "http://www.w3.org/Graphics/SVG/1.1/DTD/svg11.dtd">
<svg xmlns="http://www.w3.org/2000/svg" xmlns:xlink="http://www.w3.org/1999/xlink" version="1.1" width="5333.333pt" height="3000pt" viewBox="0 0 5333.333 3000">
<g enable-background="new">
<g id="Layer-1" data-name="Capa 1">
<path transform="matrix(2.7777777,0,0,-2.7777777,0,3000)" d="M 0 0 L 1920 0 L 1920 1080 L 0 1080 Z " fill="#ffffff"/>
<clipPath id="cp0">
<path transform="matrix(2.7777777,0,0,-2.7777777,0,3000)" d="M 0 1080 L 1920 1080 L 1920 0 L 0 0 Z "/>
</clipPath>
<g clip-path="url(#cp0)">
<path transform="matrix(2.7777777,0,0,-2.7777777,1543.2035,1900.5076)" d="M 0 0 C 0 -3.457 -26.021 -6.259 -58.12 -6.259 C -90.219 -6.259 -116.24 -3.457 -116.24 0 C -116.24 3.457 -90.219 6.259 -58.12 6.259 C -26.021 6.259 0 3.457 0 0 "/>
<path transform="matrix(2.7777777,0,0,-2.7777777,1703.7627,1216.6963)" d="M 0 0 L .011 0 Z M -117.491 -34.819 C -159.799 -34.819 -198.414 -61.811 -212.111 -102.51 C -229.202 -153.291 -201.927 -209.481 -151.31 -227.767 C -100.38 -246.166 -43.806 -220.276 -25.196 -170.055 C -11.64 -133.468 -17.758 -99.24 -43.382 -68.322 C -44.33 -67.177 -45.618 -65.366 -45.854 -62.861 C -46.046 -60.829 -45.551 -58.835 -44.383 -56.938 C -43.248 -55.089 -36.549 -42.093 -32.95 -35.111 L -13.182 2.192 L -6.743 -1.3 C -6.243 -1.571 -5.767 -1.83 -5.314 -2.075 C -4.668 -.825 -3.999 .444 -3.307 1.72 C -11.417 5.941 -19.569 10.253 -27.484 14.439 C -30.54 16.055 -33.596 17.671 -36.652 19.284 L -45.533 23.963 C -53.551 28.185 -61.809 32.533 -69.967 36.902 C -70.324 36.228 -70.685 35.564 -71.04 34.91 C -71.358 34.326 -71.676 33.741 -71.988 33.154 C -71.103 32.698 -69.804 31.972 -69.521 31.814 L -64.617 29.064 L -67.043 23.992 C -67.068 23.939 -67.674 22.676 -68.429 21.264 C -76.513 6.142 -85.243 -10.387 -95.905 -30.754 C -97.247 -33.316 -99.94 -36.234 -105.187 -35.582 C -109.307 -35.07 -113.42 -34.819 -117.491 -34.819 M -117.765 -245.666 C -130.464 -245.666 -143.164 -243.469 -155.387 -239.053 C -183.034 -229.065 -205.311 -209.036 -218.113 -182.653 C -230.919 -156.264 -232.827 -126.441 -223.484 -98.682 C -215.293 -74.344 -198.815 -53.446 -177.086 -39.839 C -155.902 -26.574 -130.602 -20.785 -105.627 -23.452 C -96.014 -5.095 -87.973 10.133 -80.533 24.072 C -82.519 25.239 -84.102 26.632 -84.866 28.979 C -85.97 32.372 -84.552 35.06 -82.756 38.463 C -82.37 39.193 -81.977 39.917 -81.584 40.641 C -80.708 42.251 -79.881 43.773 -79.179 45.298 C -78.757 46.217 -77.47 49.016 -74.304 50.076 C -71.114 51.143 -68.362 49.663 -67.457 49.175 C -58.323 44.259 -48.979 39.339 -39.942 34.582 L -31.053 29.897 C -27.992 28.282 -24.933 26.665 -21.874 25.046 C -12.941 20.322 -3.705 15.437 5.408 10.716 C 6.307 10.251 9.042 8.834 9.979 5.641 C 10.911 2.465 9.377 -.203 8.873 -1.079 C 6.951 -4.422 5.183 -7.869 3.558 -11.094 C 3.099 -12.006 1.877 -14.432 -1.02 -15.405 C -2.474 -15.894 -4.786 -16.149 -7.511 -14.574 C -7.735 -14.444 -7.985 -14.302 -8.26 -14.148 L -22.315 -40.67 C -28.591 -52.844 -31.758 -58.92 -33.29 -61.702 C -5.452 -95.887 1.058 -133.737 -13.944 -174.225 C -24.041 -201.473 -44.411 -223.23 -71.303 -235.489 C -86.156 -242.26 -101.959 -245.665 -117.765 -245.666 " fill="#262626"/>
<path transform="matrix(2.7777777,0,0,-2.7777777,1151.1871,1530.4468)" d="M 0 0 C 21.576 29.248 47.879 49.953 86.598 47.06 C 47.372 54.52 21.652 32.858 -2.226 6.166 C -.478 12.036 2.719 20.464 8.803 29.265 C 25.682 53.68 51.247 61.394 59.41 63.461 C 89.498 71.079 125.426 63.31 144.433 41.224 C 145.742 39.704 146.746 38.376 147.41 37.461 C 145.388 33.29 141.954 27.264 136.332 21.13 C 131.183 15.513 126.133 10.023 117.93 7.482 C 111.013 5.341 103.309 5.771 94.245 8.58 C 87.376 10.708 80.573 13.053 73.692 15.143 C 50.43 22.212 28.747 18.497 8.471 5.422 C 5.654 3.606 2.824 1.807 0 0 " fill="#7cac54"/>
<path transform="matrix(2.7777777,0,0,-2.7777777,1478.5794,1803.6675)" d="M 0 0 C -2.638 -.613 -16.72 -4.803 -32.036 2.38 C -46.893 9.348 -56.743 21.817 -66.071 35.167 C -59.817 32.121 -51.846 28.934 -42.322 26.666 C -27.705 23.186 -14.979 23.194 -5.938 23.949 C -29.13 28.742 -52.807 31.886 -73.177 45.92 C -68.302 49.886 -59.333 56.124 -46.579 59.375 C -40.838 60.838 -24.759 64.936 -8.548 58.283 C 10.781 50.351 15.583 33.173 31.389 33.725 C 35.376 33.865 38.545 35.079 40.365 35.917 C 39.012 32.692 27.467 6.386 0 0 " fill="#d9f9aa"/>
<path transform="matrix(2.7777777,0,0,-2.7777777,1143.8416,1677.188)" d="M 0 0 C -8.209 13.786 -6.119 31.373 4.43 42.584 C 14.552 53.339 27.326 59.407 41.72 60.982 C 63.741 63.391 84.008 56.32 104.029 47.261 C 97.651 37.865 90.551 32.295 86.054 29.288 C 82.047 26.608 64.2 15.324 43.054 18.288 C 39.026 18.852 29.841 20.64 20.054 23.288 C 11.955 25.479 5.3 27.756 1.054 24.288 C -.639 22.905 -1.286 21.15 -1.946 19.288 C -4.821 11.177 -1.541 3.192 0 0 " fill="#346469"/>
<path transform="matrix(2.7777777,0,0,-2.7777777,1421.7697,1831.9443)" d="M 0 0 C -5.088 -1.18 -12.426 -2.358 -21.261 -1.989 C -22.575 -1.934 -30.3 -1.701 -38.987 .786 C -59.938 6.785 -77.841 17.286 -89.159 36.762 C -94.411 45.8 -96.644 55.656 -96.722 66.106 C -96.733 67.58 -96.698 70.004 -95.088 71.404 C -91.652 74.395 -83.771 70.404 -81 69 C -71.992 64.438 -66.721 57.912 -66 57 C -46.471 32.304 -42.058 23.061 -33 15 C -26.761 9.447 -16.643 2.965 0 0 " fill="#84a44c"/>
<path transform="matrix(2.7777777,0,0,-2.7777777,2018.6795,1349.3134)" d="M 0 0 C 2.208 0 3.314 -1.577 3.314 -4.723 L 3.314 -100.236 C 3.314 -105.96 3.639 -110.719 4.293 -114.509 C 4.945 -118.302 6.025 -121.307 7.531 -123.523 C 9.037 -125.745 11.07 -127.316 13.631 -128.246 C 16.192 -129.178 19.43 -129.641 23.345 -129.641 L 65.066 -129.641 C 68.982 -129.641 72.22 -129.178 74.781 -128.246 C 77.341 -127.316 79.374 -125.745 80.881 -123.523 C 82.387 -121.307 83.441 -118.302 84.044 -114.509 C 84.646 -110.719 84.947 -105.96 84.947 -100.236 L 84.947 -4.723 C 84.947 -1.577 86.051 0 88.261 0 L 104.678 0 C 106.886 0 107.991 -1.577 107.991 -4.723 L 107.991 -93.583 C 107.991 -103.886 107.238 -112.652 105.732 -119.876 C 104.226 -127.105 101.79 -132.969 98.427 -137.477 C 95.062 -141.985 90.694 -145.241 85.324 -147.244 C 79.95 -149.248 73.449 -150.247 65.819 -150.247 L 22.442 -150.247 C 14.81 -150.247 8.334 -149.248 3.012 -147.244 C -2.311 -145.241 -6.653 -141.985 -10.016 -137.477 C -13.381 -132.969 -15.84 -127.105 -17.396 -119.876 C -18.954 -112.652 -19.73 -103.886 -19.73 -93.583 L -19.73 -4.723 C -19.73 -1.577 -18.578 0 -16.267 0 Z " fill="#346469"/>
<path transform="matrix(2.7777777,0,0,-2.7777777,2437.4696,1581.2058)" d="M 0 0 L 57.685 0 C 62.806 0 66.421 2.083 68.53 6.25 C 70.638 10.414 71.693 16.76 71.693 25.282 L 71.693 36.077 C 71.693 44.599 70.638 50.942 68.53 55.109 C 66.421 59.272 62.806 61.359 57.685 61.359 L 1.958 61.359 C .651 61.359 0 60.223 0 57.949 Z M 62.355 83.481 C 73.9 83.481 82.184 79.758 87.206 72.319 C 92.226 64.878 94.737 53.861 94.737 39.265 L 94.737 23.382 C 94.737 8.786 92.226 -2.235 87.206 -9.672 C 82.184 -17.115 73.9 -20.833 62.355 -20.833 L 0 -20.833 L 0 -62.044 C 0 -65.194 -1.106 -66.766 -3.313 -66.766 L -19.58 -66.766 C -21.891 -66.766 -23.044 -65.194 -23.044 -62.044 L -23.044 77.042 C -23.044 81.335 -21.538 83.481 -18.526 83.481 Z " fill="#7cac54"/>
<path transform="matrix(2.7777777,0,0,-2.7777777,2952.0704,1439.3461)" d="M 0 0 C 1.808 0 2.711 -1.287 2.711 -3.863 L 2.711 -21.892 C 2.711 -24.468 1.808 -25.755 0 -25.755 L -40.063 -25.755 C -43.278 -25.755 -45.937 -26.151 -48.046 -26.936 C -50.155 -27.725 -51.838 -29.012 -53.091 -30.8 C -54.348 -32.59 -55.226 -35.022 -55.728 -38.098 C -56.231 -41.176 -56.48 -44.933 -56.48 -49.366 L -56.48 -113.114 C -56.48 -116.264 -57.586 -117.835 -59.794 -117.835 L -74.554 -117.835 C -76.865 -117.835 -78.019 -116.264 -78.019 -113.114 L -78.019 -43.571 C -78.019 -35.844 -77.416 -29.227 -76.211 -23.717 C -75.007 -18.21 -73.024 -13.702 -70.262 -10.194 C -67.501 -6.69 -63.837 -4.114 -59.267 -2.468 C -54.699 -.825 -49.001 0 -42.172 0 Z "/>
<path transform="matrix(2.7777777,0,0,-2.7777777,3049.1304,1631.3259)" d="M 0 0 C 0 -4.581 .25 -8.371 .753 -11.376 C 1.255 -14.382 2.132 -16.779 3.389 -18.566 C 4.643 -20.358 6.325 -21.644 8.435 -22.429 C 10.542 -23.219 13.203 -23.61 16.417 -23.61 L 54.824 -23.61 C 58.138 -23.61 60.848 -23.219 62.957 -22.429 C 65.065 -21.644 66.746 -20.358 68.002 -18.566 C 69.257 -16.779 70.135 -14.382 70.638 -11.376 C 71.139 -8.371 71.392 -4.581 71.392 0 L 71.392 20.391 C 71.392 24.824 71.139 28.547 70.638 31.551 C 70.135 34.557 69.257 36.988 68.002 38.85 C 66.746 40.707 65.065 41.996 62.957 42.713 C 60.848 43.428 58.138 43.786 54.824 43.786 L 16.417 43.786 C 13.203 43.786 10.542 43.428 8.435 42.713 C 6.325 41.996 4.643 40.707 3.389 38.85 C 2.132 36.988 1.255 34.557 .753 31.551 C .25 28.547 0 24.824 0 20.391 Z M 56.933 69.113 C 63.658 69.113 69.332 68.288 73.952 66.645 C 78.569 64.999 82.259 62.422 85.022 58.919 C 87.782 55.411 89.766 50.903 90.972 45.396 C 92.176 39.886 92.778 33.269 92.778 25.541 L 92.778 -5.366 C 92.778 -13.092 92.176 -19.713 90.972 -25.22 C 89.766 -30.73 87.782 -35.238 85.022 -38.742 C 82.259 -42.251 78.569 -44.789 73.952 -46.363 C 69.332 -47.938 63.658 -48.723 56.933 -48.723 L 14.309 -48.723 C 7.479 -48.723 1.781 -47.938 -2.786 -46.363 C -7.357 -44.789 -11.02 -42.251 -13.781 -38.742 C -16.544 -35.238 -18.526 -30.73 -19.731 -25.22 C -20.935 -19.713 -21.538 -13.092 -21.538 -5.366 L -21.538 25.541 C -21.538 33.269 -20.935 39.886 -19.731 45.396 C -18.526 50.903 -16.544 55.411 -13.781 58.919 C -11.02 62.422 -7.357 64.999 -2.786 66.645 C 1.781 68.288 7.479 69.113 14.309 69.113 Z "/>
<path transform="matrix(2.7777777,0,0,-2.7777777,3431.9412,1349.3134)" d="M 0 0 C 2.41 0 4.417 -.145 6.025 -.43 C 7.629 -.718 9.037 -1.326 10.242 -2.255 C 11.446 -3.187 12.6 -4.474 13.707 -6.118 C 14.809 -7.765 16.064 -9.948 17.471 -12.664 L 73.5 -117.408 C 73.9 -118.41 74.554 -118.91 75.459 -118.91 L 76.814 -118.91 C 77.617 -118.91 78.019 -118.196 78.019 -116.763 L 78.019 -4.723 C 78.019 -1.577 79.122 0 81.333 0 L 97.147 0 C 99.355 0 100.46 -1.577 100.46 -4.723 L 100.46 -127.925 C 100.46 -136.655 99.355 -142.557 97.147 -145.633 C 94.937 -148.712 91.522 -150.247 86.905 -150.247 L 73.953 -150.247 C 71.642 -150.247 69.709 -150.107 68.153 -149.819 C 66.595 -149.534 65.217 -148.96 64.012 -148.101 C 62.806 -147.244 61.625 -145.992 60.472 -144.345 C 59.317 -142.702 57.987 -140.448 56.481 -137.583 L .302 -32.84 C -.302 -31.841 -.956 -31.337 -1.657 -31.337 L -3.012 -31.337 C -3.817 -31.337 -4.217 -32.056 -4.217 -33.484 L -4.217 -145.526 C -4.217 -148.675 -5.323 -150.247 -7.531 -150.247 L -23.345 -150.247 C -25.656 -150.247 -26.809 -148.675 -26.809 -145.526 L -26.809 -22.323 C -26.809 -13.596 -25.705 -7.694 -23.496 -4.615 C -21.288 -1.54 -17.874 0 -13.254 0 Z " fill="#7cac54"/>
<path transform="matrix(2.7777777,0,0,-2.7777777,3978.756,1701.0839)" d="M 0 0 C 1.605 0 2.735 .537 3.389 1.609 C 4.041 2.684 4.368 4.578 4.368 7.298 L 4.368 26.186 L -50.757 26.186 C -53.871 26.186 -56.055 25.29 -57.309 23.504 C -58.565 21.712 -59.191 19.102 -59.191 15.669 L -59.191 11.161 C -59.191 7.298 -58.565 4.47 -57.309 2.684 C -56.055 .892 -53.871 0 -50.757 0 Z M -9.94 94.226 C -3.215 94.226 2.459 93.401 7.079 91.758 C 11.696 90.111 15.386 87.535 18.15 84.032 C 20.91 80.524 22.894 76.016 24.098 70.508 C 25.303 64.999 25.906 58.382 25.906 50.654 L 25.906 -6.439 C 25.906 -9.874 25.73 -12.701 25.379 -14.918 C 25.026 -17.138 24.424 -18.888 23.571 -20.176 C 22.718 -21.463 21.587 -22.359 20.183 -22.859 C 18.775 -23.362 16.968 -23.61 14.76 -23.61 L -56.932 -23.61 C -61.352 -23.61 -65.042 -23.004 -68.002 -21.786 C -70.965 -20.572 -73.349 -18.747 -75.156 -16.313 C -76.964 -13.882 -78.244 -10.732 -78.997 -6.868 C -79.75 -3.005 -80.127 1.573 -80.127 6.868 L -80.127 17.17 C -80.127 21.605 -79.75 25.575 -78.997 29.083 C -78.244 32.588 -76.964 35.557 -75.156 37.99 C -73.349 40.422 -70.965 42.247 -68.002 43.464 C -65.042 44.678 -61.352 45.289 -56.932 45.289 L 4.368 45.289 L 4.368 49.367 C 4.368 52.801 4.116 55.732 3.615 58.167 C 3.112 60.598 2.259 62.567 1.055 64.069 C -.15 65.572 -1.807 66.679 -3.916 67.396 C -6.024 68.111 -8.736 68.471 -12.049 68.471 L -75.006 68.471 C -76.813 68.471 -77.716 69.757 -77.716 72.334 L -77.716 90.362 C -77.716 92.939 -76.813 94.226 -75.006 94.226 Z "/>
<path transform="matrix(2.7777777,0,0,-2.7777777,4123.51,1439.3461)" d="M 0 0 L 0 28.334 C 0 31.48 1.103 33.055 3.314 33.055 L 18.224 33.055 C 20.431 33.055 21.537 31.48 21.537 28.334 L 21.537 0 L 47.895 0 C 49.703 0 50.606 -1.287 50.606 -3.863 L 50.606 -21.463 C 50.606 -24.038 49.703 -25.327 47.895 -25.327 L 21.537 -25.327 L 21.537 -75.124 C 21.537 -81.133 22.39 -85.532 24.098 -88.323 C 25.804 -91.113 29.167 -92.509 34.19 -92.509 L 48.8 -92.509 C 50.606 -92.509 51.511 -93.797 51.511 -96.372 L 51.511 -113.972 C 51.511 -116.549 50.606 -117.835 48.8 -117.835 L 30.575 -117.835 C 24.55 -117.835 19.581 -117.051 15.663 -115.475 C 11.748 -113.902 8.609 -111.396 6.25 -107.963 C 3.89 -104.528 2.258 -100.094 1.355 -94.654 C .452 -89.219 0 -82.71 0 -75.124 L 0 -25.327 L -14.309 -25.327 C -16.116 -25.327 -17.021 -24.038 -17.021 -21.463 L -17.021 -3.863 C -17.021 -1.287 -16.116 0 -14.309 0 Z "/>
</g>
</g>
</g>
</svg>
