<?xml version="1.0" encoding="UTF-8" standalone="no"?>
<!DOCTYPE svg PUBLIC "-//W3C//DTD SVG 1.1//EN" "http://www.w3.org/Graphics/SVG/1.1/DTD/svg11.dtd">
<svg xmlns="http://www.w3.org/2000/svg" xmlns:xlink="http://www.w3.org/1999/xlink" version="1.1" width="5333.333pt" height="3000pt" viewBox="0 0 5333.333 3000">
<g enable-background="new">
<g id="Layer-1" data-name="Capa 1">
<path transform="matrix(2.7777777,0,0,-2.7777777,0,3000)" d="M 0 0 L 1920 0 L 1920 1080 L 0 1080 Z " fill="#ffffff"/>
<clipPath id="cp0">
<path transform="matrix(2.7777777,0,0,-2.7777777,0,3000)" d="M 0 1080 L 1920 1080 L 1920 0 L 0 0 Z "/>
</clipPath>
<g clip-path="url(#cp0)">
<path transform="matrix(2.7777777,0,0,-2.7777777,2810.35,1900.5076)" d="M 0 0 C 0 -3.457 -26.021 -6.259 -58.12 -6.259 C -90.219 -6.259 -116.24 -3.457 -116.24 0 C -116.24 3.457 -90.219 6.259 -58.12 6.259 C -26.021 6.259 0 3.457 0 0 "/>
<path transform="matrix(2.7777777,0,0,-2.7777777,2970.91,1216.6963)" d="M 0 0 L .011 0 Z M -117.491 -34.819 C -159.799 -34.819 -198.414 -61.811 -212.111 -102.51 C -229.202 -153.291 -201.927 -209.481 -151.31 -227.767 C -100.38 -246.166 -43.806 -220.276 -25.196 -170.055 C -11.64 -133.468 -17.758 -99.24 -43.382 -68.322 C -44.33 -67.177 -45.618 -65.366 -45.854 -62.861 C -46.046 -60.829 -45.551 -58.835 -44.383 -56.938 C -43.248 -55.089 -36.549 -42.093 -32.95 -35.111 L -13.182 2.192 L -6.743 -1.3 C -6.243 -1.571 -5.767 -1.83 -5.314 -2.075 C -4.668 -.825 -3.999 .444 -3.307 1.72 C -11.417 5.941 -19.569 10.253 -27.484 14.439 C -30.54 16.055 -33.596 17.671 -36.652 19.284 L -45.533 23.963 C -53.551 28.185 -61.809 32.533 -69.967 36.902 C -70.324 36.228 -70.685 35.564 -71.04 34.91 C -71.358 34.326 -71.676 33.741 -71.988 33.154 C -71.103 32.698 -69.804 31.972 -69.522 31.814 L -64.617 29.064 L -67.043 23.992 C -67.068 23.939 -67.674 22.676 -68.429 21.264 C -76.513 6.142 -85.243 -10.387 -95.905 -30.754 C -97.247 -33.316 -99.94 -36.234 -105.188 -35.582 C -109.307 -35.07 -113.42 -34.819 -117.491 -34.819 M -117.765 -245.666 C -130.464 -245.666 -143.164 -243.469 -155.387 -239.053 C -183.034 -229.065 -205.311 -209.036 -218.113 -182.653 C -230.919 -156.264 -232.827 -126.441 -223.484 -98.682 C -215.294 -74.344 -198.815 -53.446 -177.086 -39.839 C -155.902 -26.574 -130.602 -20.785 -105.627 -23.452 C -96.014 -5.095 -87.973 10.133 -80.533 24.072 C -82.519 25.239 -84.102 26.632 -84.866 28.979 C -85.97 32.372 -84.552 35.06 -82.756 38.463 C -82.37 39.193 -81.977 39.917 -81.584 40.641 C -80.708 42.251 -79.881 43.773 -79.179 45.298 C -78.757 46.217 -77.47 49.016 -74.304 50.076 C -71.114 51.143 -68.362 49.663 -67.457 49.175 C -58.323 44.259 -48.98 39.339 -39.942 34.582 L -31.053 29.897 C -27.992 28.282 -24.933 26.665 -21.874 25.046 C -12.941 20.322 -3.705 15.437 5.408 10.716 C 6.307 10.251 9.042 8.834 9.979 5.641 C 10.911 2.465 9.377 -.203 8.873 -1.079 C 6.951 -4.422 5.183 -7.869 3.558 -11.094 C 3.099 -12.006 1.877 -14.432 -1.02 -15.405 C -2.474 -15.894 -4.786 -16.149 -7.511 -14.574 C -7.735 -14.444 -7.985 -14.302 -8.26 -14.148 L -22.315 -40.67 C -28.591 -52.844 -31.758 -58.92 -33.29 -61.702 C -5.452 -95.887 1.058 -133.737 -13.944 -174.225 C -24.041 -201.473 -44.411 -223.23 -71.303 -235.489 C -86.156 -242.26 -101.959 -245.665 -117.765 -245.666 " fill="#262626"/>
<path transform="matrix(2.7777777,0,0,-2.7777777,2418.334,1530.4468)" d="M 0 0 C 21.576 29.248 47.879 49.953 86.598 47.06 C 47.372 54.52 21.652 32.858 -2.226 6.166 C -.478 12.036 2.719 20.464 8.803 29.265 C 25.682 53.68 51.247 61.394 59.41 63.461 C 89.498 71.079 125.426 63.31 144.433 41.224 C 145.742 39.704 146.746 38.376 147.41 37.461 C 145.388 33.29 141.954 27.264 136.332 21.13 C 131.183 15.513 126.133 10.023 117.93 7.482 C 111.013 5.341 103.309 5.771 94.245 8.58 C 87.376 10.708 80.573 13.053 73.692 15.143 C 50.43 22.212 28.747 18.497 8.471 5.422 C 5.654 3.606 2.824 1.807 0 0 " fill="#7cac54"/>
<path transform="matrix(2.7777777,0,0,-2.7777777,2745.7264,1803.6675)" d="M 0 0 C -2.638 -.613 -16.72 -4.803 -32.036 2.38 C -46.893 9.348 -56.743 21.817 -66.071 35.167 C -59.818 32.121 -51.846 28.934 -42.322 26.666 C -27.705 23.186 -14.979 23.194 -5.938 23.949 C -29.13 28.742 -52.807 31.886 -73.177 45.92 C -68.302 49.886 -59.333 56.124 -46.579 59.375 C -40.838 60.838 -24.759 64.936 -8.548 58.283 C 10.781 50.351 15.583 33.173 31.389 33.725 C 35.376 33.865 38.545 35.079 40.365 35.917 C 39.012 32.692 27.467 6.386 0 0 " fill="#d9f9aa"/>
<path transform="matrix(2.7777777,0,0,-2.7777777,2410.9886,1677.188)" d="M 0 0 C -8.209 13.786 -6.119 31.373 4.43 42.584 C 14.552 53.339 27.326 59.407 41.72 60.982 C 63.741 63.391 84.008 56.32 104.029 47.261 C 97.651 37.865 90.551 32.295 86.054 29.288 C 82.047 26.608 64.2 15.324 43.054 18.288 C 39.026 18.852 29.841 20.64 20.054 23.288 C 11.955 25.479 5.3 27.756 1.054 24.288 C -.639 22.905 -1.286 21.15 -1.946 19.288 C -4.821 11.177 -1.541 3.192 0 0 " fill="#346469"/>
<path transform="matrix(2.7777777,0,0,-2.7777777,2688.9163,1831.9443)" d="M 0 0 C -5.088 -1.18 -12.426 -2.358 -21.261 -1.989 C -22.575 -1.934 -30.3 -1.701 -38.987 .786 C -59.938 6.785 -77.841 17.286 -89.159 36.762 C -94.411 45.8 -96.644 55.656 -96.722 66.106 C -96.733 67.58 -96.698 70.004 -95.088 71.404 C -91.652 74.395 -83.771 70.404 -81 69 C -71.992 64.438 -66.721 57.912 -66 57 C -46.471 32.304 -42.058 23.061 -33 15 C -26.761 9.447 -16.643 2.965 0 0 " fill="#84a44c"/>
</g>
</g>
</g>
</svg>
