<?xml version="1.0" standalone="no"?>
<!DOCTYPE svg PUBLIC "-//W3C//DTD SVG 20010904//EN"
 "http://www.w3.org/TR/2001/REC-SVG-20010904/DTD/svg10.dtd">
<svg version="1.0" xmlns="http://www.w3.org/2000/svg"
 width="885.000000pt" height="885.000000pt" viewBox="0 0 885.000000 885.000000"
 preserveAspectRatio="xMidYMid meet">
<metadata>
Created by potrace 1.14, written by Peter Selinger 2001-2017
</metadata>
<g transform="translate(0.000000,885.000000) scale(0.100000,-0.100000)"
fill="#000000" stroke="none">
<path d="M5504 8625 c-17 -9 -45 -30 -61 -48 -43 -45 -210 -374 -218 -429 -11
-74 9 -126 73 -186 l56 -54 -31 -56 c-17 -32 -50 -93 -73 -137 -24 -44 -55
-102 -70 -130 -15 -27 -57 -106 -93 -175 -36 -69 -93 -177 -126 -240 -34 -63
-116 -220 -183 -348 l-123 -234 -45 6 c-176 24 -510 15 -743 -20 -1003 -149
-1857 -765 -2312 -1669 -390 -772 -440 -1646 -142 -2455 118 -321 276 -600
497 -874 381 -474 881 -815 1477 -1009 18 -5 30 -14 28 -18 -3 -4 -40 -10 -83
-13 -298 -23 -532 -72 -570 -118 -11 -14 -9 -19 14 -37 29 -23 64 -34 169 -55
143 -29 213 -37 500 -62 250 -21 1254 -30 1555 -15 325 17 569 38 695 60 150
25 173 30 219 48 92 34 86 70 -19 102 -102 32 -252 55 -455 72 -116 9 -237 25
-211 28 8 0 33 10 55 20 23 10 70 28 106 39 86 26 145 52 324 140 742 368
1286 1005 1539 1802 240 754 219 1427 -65 2110 -96 233 -301 577 -457 770 -33
41 -61 83 -61 94 0 10 29 71 64 135 35 64 103 193 151 286 48 94 102 197 120
230 18 33 58 110 90 170 57 108 108 205 188 355 22 41 48 89 59 107 l19 32 42
-19 c49 -23 124 -26 170 -6 55 22 93 71 158 199 34 67 65 127 69 132 34 44 70
138 70 183 0 114 -40 154 -268 273 -97 50 -287 150 -422 221 -135 72 -292 155
-350 185 -58 31 -136 72 -175 93 -38 21 -176 93 -305 160 -129 67 -282 148
-340 180 -318 173 -339 183 -409 187 -47 3 -75 -1 -97 -12z m521 -557 c291
-154 813 -430 1355 -716 58 -30 107 -57 109 -59 7 -5 -41 -103 -50 -103 -5 0
-54 25 -110 56 -56 30 -105 52 -109 47 -10 -11 -768 -1447 -873 -1655 -23 -43
-29 -70 -29 -117 0 -78 20 -119 123 -246 44 -55 118 -156 163 -225 240 -361
380 -703 448 -1095 29 -172 36 -529 14 -716 -46 -380 -170 -770 -343 -1084
-490 -887 -1469 -1438 -2488 -1401 -602 21 -1168 230 -1635 602 -109 87 -336
315 -424 424 -230 289 -416 647 -516 998 -120 422 -136 894 -45 1317 90 417
278 812 546 1145 557 695 1467 1096 2333 1029 232 -18 275 -17 327 12 23 13
54 40 69 59 15 19 146 260 290 535 145 275 315 599 380 720 161 301 232 444
225 455 -3 5 -48 32 -100 61 -53 29 -94 55 -92 58 1 3 13 27 26 53 19 36 28
45 40 39 9 -5 174 -92 366 -193z"/>
<path d="M3140 4329 c-363 -41 -701 -198 -961 -446 -104 -100 -169 -186 -224
-298 -119 -242 -133 -501 -44 -773 25 -76 34 -77 14 -2 -35 131 -29 266 16
387 61 161 186 200 439 134 63 -16 185 -48 270 -70 86 -22 237 -57 335 -78
177 -37 183 -37 400 -37 189 0 234 3 318 22 273 61 552 189 771 355 153 116
414 403 389 428 -12 12 -239 110 -370 160 -314 119 -583 188 -858 219 -106 12
-387 11 -495 -1z"/>
</g>
</svg>
