<?xml version="1.0" encoding="UTF-8" standalone="no"?>
<!DOCTYPE svg PUBLIC "-//W3C//DTD SVG 1.1//EN" "http://www.w3.org/Graphics/SVG/1.1/DTD/svg11.dtd">
<svg xmlns="http://www.w3.org/2000/svg" xmlns:xlink="http://www.w3.org/1999/xlink" version="1.1" width="5333.333pt" height="3000pt" viewBox="0 0 5333.333 3000">
<g enable-background="new">
<g id="Layer-1" data-name="Capa 1">
<path transform="matrix(2.7777777,0,0,-2.7777777,0,3000)" d="M 0 0 L 1920 0 L 1920 1080 L 0 1080 Z " fill="#ffffff"/>
<clipPath id="cp0">
<path transform="matrix(2.7777777,0,0,-2.7777777,0,3000)" d="M 0 1080 L 1920 1080 L 1920 0 L 0 0 Z "/>
</clipPath>
<g clip-path="url(#cp0)">
<path transform="matrix(2.7777777,0,0,-2.7777777,1543.2035,1761.6187)" d="M 0 0 C 0 -3.457 -26.021 -6.259 -58.12 -6.259 C -90.219 -6.259 -116.24 -3.457 -116.24 0 C -116.24 3.457 -90.219 6.259 -58.12 6.259 C -26.021 6.259 0 3.457 0 0 "/>
<path transform="matrix(2.7777777,0,0,-2.7777777,1703.7627,1077.8074)" d="M 0 0 L .011 0 Z M -117.491 -34.819 C -159.799 -34.819 -198.414 -61.811 -212.111 -102.51 C -229.202 -153.291 -201.927 -209.481 -151.31 -227.767 C -100.38 -246.166 -43.806 -220.276 -25.196 -170.055 C -11.64 -133.468 -17.758 -99.24 -43.382 -68.322 C -44.33 -67.177 -45.618 -65.366 -45.854 -62.861 C -46.046 -60.829 -45.551 -58.835 -44.383 -56.938 C -43.248 -55.089 -36.549 -42.093 -32.95 -35.111 L -13.182 2.192 L -6.743 -1.3 C -6.243 -1.571 -5.767 -1.83 -5.314 -2.075 C -4.668 -.825 -3.999 .444 -3.307 1.72 C -11.417 5.941 -19.569 10.253 -27.484 14.439 C -30.54 16.055 -33.596 17.671 -36.652 19.284 L -45.533 23.963 C -53.551 28.185 -61.809 32.533 -69.967 36.902 C -70.324 36.228 -70.685 35.564 -71.04 34.91 C -71.358 34.326 -71.676 33.741 -71.988 33.154 C -71.103 32.698 -69.804 31.972 -69.521 31.814 L -64.617 29.064 L -67.043 23.992 C -67.068 23.939 -67.674 22.676 -68.429 21.264 C -76.513 6.142 -85.243 -10.387 -95.905 -30.754 C -97.247 -33.316 -99.94 -36.234 -105.187 -35.582 C -109.307 -35.07 -113.42 -34.819 -117.491 -34.819 M -117.765 -245.666 C -130.464 -245.666 -143.164 -243.469 -155.387 -239.053 C -183.034 -229.065 -205.311 -209.036 -218.113 -182.653 C -230.919 -156.264 -232.827 -126.441 -223.484 -98.682 C -215.293 -74.344 -198.815 -53.446 -177.086 -39.839 C -155.902 -26.574 -130.602 -20.785 -105.627 -23.452 C -96.014 -5.095 -87.973 10.133 -80.533 24.072 C -82.519 25.239 -84.102 26.632 -84.866 28.979 C -85.97 32.372 -84.552 35.06 -82.756 38.463 C -82.37 39.193 -81.977 39.917 -81.584 40.641 C -80.708 42.251 -79.881 43.773 -79.179 45.298 C -78.757 46.217 -77.47 49.016 -74.304 50.076 C -71.114 51.143 -68.362 49.663 -67.457 49.175 C -58.323 44.259 -48.979 39.339 -39.942 34.582 L -31.053 29.897 C -27.992 28.282 -24.933 26.665 -21.874 25.046 C -12.941 20.322 -3.705 15.437 5.408 10.716 C 6.307 10.251 9.042 8.834 9.979 5.641 C 10.911 2.465 9.377 -.203 8.873 -1.079 C 6.951 -4.422 5.183 -7.869 3.558 -11.094 C 3.099 -12.006 1.877 -14.432 -1.02 -15.405 C -2.474 -15.894 -4.786 -16.149 -7.511 -14.574 C -7.735 -14.444 -7.985 -14.302 -8.26 -14.148 L -22.315 -40.67 C -28.591 -52.844 -31.758 -58.92 -33.29 -61.702 C -5.452 -95.887 1.058 -133.737 -13.944 -174.225 C -24.041 -201.473 -44.411 -223.23 -71.303 -235.489 C -86.156 -242.26 -101.959 -245.665 -117.765 -245.666 " fill="#262626"/>
<path transform="matrix(2.7777777,0,0,-2.7777777,1151.1871,1391.558)" d="M 0 0 C 21.576 29.248 47.879 49.953 86.598 47.06 C 47.372 54.52 21.652 32.858 -2.226 6.166 C -.478 12.036 2.719 20.464 8.803 29.265 C 25.682 53.68 51.247 61.394 59.41 63.461 C 89.498 71.079 125.426 63.31 144.433 41.224 C 145.742 39.704 146.746 38.376 147.41 37.461 C 145.388 33.29 141.954 27.264 136.332 21.13 C 131.183 15.513 126.133 10.023 117.93 7.482 C 111.013 5.341 103.309 5.771 94.245 8.58 C 87.376 10.708 80.573 13.053 73.692 15.143 C 50.43 22.212 28.747 18.497 8.471 5.422 C 5.654 3.606 2.824 1.807 0 0 " fill="#7cac54"/>
<path transform="matrix(2.7777777,0,0,-2.7777777,1478.5794,1664.7786)" d="M 0 0 C -2.638 -.613 -16.72 -4.803 -32.036 2.38 C -46.893 9.348 -56.743 21.817 -66.071 35.167 C -59.817 32.121 -51.846 28.934 -42.322 26.666 C -27.705 23.186 -14.979 23.194 -5.938 23.949 C -29.13 28.742 -52.807 31.886 -73.177 45.92 C -68.302 49.886 -59.333 56.125 -46.579 59.375 C -40.838 60.838 -24.759 64.936 -8.548 58.283 C 10.781 50.351 15.583 33.173 31.389 33.725 C 35.376 33.865 38.545 35.079 40.365 35.917 C 39.012 32.692 27.467 6.386 0 0 " fill="#d9f9aa"/>
<path transform="matrix(2.7777777,0,0,-2.7777777,1143.8416,1538.2992)" d="M 0 0 C -8.209 13.786 -6.119 31.373 4.43 42.584 C 14.552 53.339 27.326 59.407 41.72 60.982 C 63.741 63.391 84.008 56.32 104.029 47.261 C 97.651 37.865 90.551 32.295 86.054 29.288 C 82.047 26.608 64.2 15.324 43.054 18.288 C 39.026 18.852 29.841 20.64 20.054 23.288 C 11.955 25.479 5.3 27.756 1.054 24.288 C -.639 22.905 -1.286 21.15 -1.946 19.288 C -4.821 11.177 -1.541 3.192 0 0 " fill="#346469"/>
<path transform="matrix(2.7777777,0,0,-2.7777777,1421.7697,1693.0556)" d="M 0 0 C -5.088 -1.18 -12.426 -2.358 -21.261 -1.989 C -22.575 -1.934 -30.3 -1.701 -38.987 .786 C -59.938 6.785 -77.841 17.286 -89.159 36.762 C -94.411 45.8 -96.644 55.656 -96.722 66.106 C -96.733 67.58 -96.698 70.004 -95.088 71.404 C -91.652 74.395 -83.771 70.404 -81 69 C -71.992 64.438 -66.721 57.912 -66 57 C -46.471 32.304 -42.058 23.061 -33 15 C -26.761 9.447 -16.643 2.965 0 0 " fill="#84a44c"/>
<path transform="matrix(2.7777777,0,0,-2.7777777,2018.6795,971.5355)" d="M 0 0 C 2.208 0 3.314 -1.577 3.314 -4.723 L 3.314 -100.236 C 3.314 -105.96 3.639 -110.719 4.293 -114.509 C 4.945 -118.302 6.025 -121.307 7.531 -123.523 C 9.037 -125.745 11.07 -127.316 13.631 -128.246 C 16.192 -129.178 19.43 -129.641 23.345 -129.641 L 65.066 -129.641 C 68.982 -129.641 72.22 -129.178 74.781 -128.246 C 77.341 -127.316 79.374 -125.745 80.881 -123.523 C 82.387 -121.307 83.441 -118.302 84.044 -114.509 C 84.646 -110.719 84.947 -105.96 84.947 -100.236 L 84.947 -4.723 C 84.947 -1.577 86.051 0 88.261 0 L 104.678 0 C 106.886 0 107.991 -1.577 107.991 -4.723 L 107.991 -93.583 C 107.991 -103.886 107.238 -112.652 105.732 -119.876 C 104.226 -127.105 101.79 -132.969 98.427 -137.477 C 95.062 -141.985 90.694 -145.241 85.324 -147.244 C 79.95 -149.248 73.449 -150.247 65.819 -150.247 L 22.442 -150.247 C 14.81 -150.247 8.334 -149.248 3.012 -147.244 C -2.311 -145.241 -6.653 -141.985 -10.016 -137.477 C -13.381 -132.969 -15.84 -127.105 -17.396 -119.876 C -18.954 -112.652 -19.73 -103.886 -19.73 -93.583 L -19.73 -4.723 C -19.73 -1.577 -18.578 0 -16.267 0 Z " fill="#346469"/>
<path transform="matrix(2.7777777,0,0,-2.7777777,2437.4696,1203.428)" d="M 0 0 L 57.685 0 C 62.806 0 66.421 2.083 68.53 6.25 C 70.638 10.414 71.693 16.76 71.693 25.282 L 71.693 36.077 C 71.693 44.599 70.638 50.942 68.53 55.109 C 66.421 59.272 62.806 61.359 57.685 61.359 L 1.958 61.359 C .651 61.359 0 60.223 0 57.949 Z M 62.355 83.481 C 73.9 83.481 82.184 79.758 87.206 72.319 C 92.226 64.878 94.737 53.861 94.737 39.265 L 94.737 23.382 C 94.737 8.786 92.226 -2.234 87.206 -9.672 C 82.184 -17.115 73.9 -20.833 62.355 -20.833 L 0 -20.833 L 0 -62.044 C 0 -65.194 -1.106 -66.766 -3.313 -66.766 L -19.58 -66.766 C -21.891 -66.766 -23.044 -65.194 -23.044 -62.044 L -23.044 77.042 C -23.044 81.335 -21.538 83.481 -18.526 83.481 Z " fill="#7cac54"/>
<path transform="matrix(2.7777777,0,0,-2.7777777,2952.0704,1061.5684)" d="M 0 0 C 1.808 0 2.711 -1.287 2.711 -3.863 L 2.711 -21.892 C 2.711 -24.468 1.808 -25.755 0 -25.755 L -40.063 -25.755 C -43.278 -25.755 -45.937 -26.151 -48.046 -26.936 C -50.155 -27.725 -51.838 -29.012 -53.091 -30.8 C -54.348 -32.59 -55.226 -35.022 -55.728 -38.098 C -56.231 -41.176 -56.48 -44.933 -56.48 -49.366 L -56.48 -113.114 C -56.48 -116.264 -57.586 -117.835 -59.794 -117.835 L -74.554 -117.835 C -76.865 -117.835 -78.019 -116.264 -78.019 -113.114 L -78.019 -43.571 C -78.019 -35.844 -77.416 -29.227 -76.211 -23.717 C -75.007 -18.21 -73.024 -13.702 -70.262 -10.194 C -67.501 -6.69 -63.837 -4.114 -59.267 -2.468 C -54.699 -.825 -49.001 0 -42.172 0 Z "/>
<path transform="matrix(2.7777777,0,0,-2.7777777,3049.1304,1253.548)" d="M 0 0 C 0 -4.581 .25 -8.371 .753 -11.376 C 1.255 -14.382 2.132 -16.779 3.389 -18.566 C 4.643 -20.358 6.325 -21.644 8.435 -22.429 C 10.542 -23.219 13.203 -23.61 16.417 -23.61 L 54.824 -23.61 C 58.138 -23.61 60.848 -23.219 62.957 -22.429 C 65.065 -21.644 66.746 -20.358 68.002 -18.566 C 69.257 -16.779 70.135 -14.382 70.638 -11.376 C 71.139 -8.371 71.392 -4.581 71.392 0 L 71.392 20.391 C 71.392 24.824 71.139 28.547 70.638 31.551 C 70.135 34.557 69.257 36.988 68.002 38.85 C 66.746 40.707 65.065 41.996 62.957 42.713 C 60.848 43.428 58.138 43.786 54.824 43.786 L 16.417 43.786 C 13.203 43.786 10.542 43.428 8.435 42.713 C 6.325 41.996 4.643 40.707 3.389 38.85 C 2.132 36.988 1.255 34.557 .753 31.551 C .25 28.547 0 24.824 0 20.391 Z M 56.933 69.113 C 63.658 69.113 69.332 68.288 73.952 66.645 C 78.569 64.999 82.259 62.422 85.022 58.919 C 87.782 55.411 89.766 50.903 90.972 45.396 C 92.176 39.886 92.778 33.269 92.778 25.541 L 92.778 -5.366 C 92.778 -13.092 92.176 -19.713 90.972 -25.22 C 89.766 -30.73 87.782 -35.238 85.022 -38.742 C 82.259 -42.251 78.569 -44.789 73.952 -46.363 C 69.332 -47.938 63.658 -48.723 56.933 -48.723 L 14.309 -48.723 C 7.479 -48.723 1.781 -47.938 -2.786 -46.363 C -7.357 -44.789 -11.02 -42.251 -13.781 -38.742 C -16.544 -35.238 -18.526 -30.73 -19.731 -25.22 C -20.935 -19.713 -21.538 -13.092 -21.538 -5.366 L -21.538 25.541 C -21.538 33.269 -20.935 39.886 -19.731 45.396 C -18.526 50.903 -16.544 55.411 -13.781 58.919 C -11.02 62.422 -7.357 64.999 -2.786 66.645 C 1.781 68.288 7.479 69.113 14.309 69.113 Z "/>
<path transform="matrix(2.7777777,0,0,-2.7777777,3431.9412,971.5355)" d="M 0 0 C 2.41 0 4.417 -.145 6.025 -.43 C 7.629 -.718 9.037 -1.326 10.242 -2.255 C 11.446 -3.187 12.6 -4.474 13.707 -6.118 C 14.809 -7.765 16.064 -9.948 17.471 -12.664 L 73.5 -117.408 C 73.9 -118.41 74.554 -118.91 75.459 -118.91 L 76.814 -118.91 C 77.617 -118.91 78.019 -118.196 78.019 -116.763 L 78.019 -4.723 C 78.019 -1.577 79.122 0 81.333 0 L 97.147 0 C 99.355 0 100.46 -1.577 100.46 -4.723 L 100.46 -127.925 C 100.46 -136.655 99.355 -142.557 97.147 -145.633 C 94.937 -148.712 91.522 -150.247 86.905 -150.247 L 73.953 -150.247 C 71.642 -150.247 69.709 -150.107 68.153 -149.819 C 66.595 -149.534 65.217 -148.96 64.012 -148.101 C 62.806 -147.244 61.625 -145.992 60.472 -144.345 C 59.317 -142.702 57.987 -140.448 56.481 -137.583 L .302 -32.84 C -.302 -31.841 -.956 -31.337 -1.657 -31.337 L -3.012 -31.337 C -3.817 -31.337 -4.217 -32.056 -4.217 -33.484 L -4.217 -145.526 C -4.217 -148.675 -5.323 -150.247 -7.531 -150.247 L -23.345 -150.247 C -25.656 -150.247 -26.809 -148.675 -26.809 -145.526 L -26.809 -22.323 C -26.809 -13.596 -25.705 -7.694 -23.496 -4.615 C -21.288 -1.54 -17.874 0 -13.254 0 Z " fill="#7cac54"/>
<path transform="matrix(2.7777777,0,0,-2.7777777,3978.756,1323.306)" d="M 0 0 C 1.605 0 2.735 .537 3.389 1.609 C 4.041 2.684 4.368 4.578 4.368 7.298 L 4.368 26.186 L -50.757 26.186 C -53.871 26.186 -56.055 25.29 -57.309 23.504 C -58.565 21.712 -59.191 19.102 -59.191 15.669 L -59.191 11.161 C -59.191 7.298 -58.565 4.47 -57.309 2.684 C -56.055 .892 -53.871 0 -50.757 0 Z M -9.94 94.226 C -3.215 94.226 2.459 93.401 7.079 91.758 C 11.696 90.111 15.386 87.535 18.15 84.032 C 20.91 80.524 22.894 76.016 24.098 70.508 C 25.303 64.999 25.906 58.382 25.906 50.654 L 25.906 -6.439 C 25.906 -9.874 25.73 -12.701 25.379 -14.918 C 25.026 -17.138 24.424 -18.888 23.571 -20.176 C 22.718 -21.463 21.587 -22.359 20.183 -22.859 C 18.775 -23.362 16.968 -23.61 14.76 -23.61 L -56.932 -23.61 C -61.352 -23.61 -65.042 -23.004 -68.002 -21.786 C -70.965 -20.572 -73.349 -18.747 -75.156 -16.313 C -76.964 -13.882 -78.244 -10.732 -78.997 -6.868 C -79.75 -3.005 -80.127 1.573 -80.127 6.868 L -80.127 17.17 C -80.127 21.605 -79.75 25.575 -78.997 29.083 C -78.244 32.588 -76.964 35.557 -75.156 37.99 C -73.349 40.422 -70.965 42.247 -68.002 43.464 C -65.042 44.678 -61.352 45.289 -56.932 45.289 L 4.368 45.289 L 4.368 49.367 C 4.368 52.801 4.116 55.732 3.615 58.167 C 3.112 60.598 2.259 62.567 1.055 64.069 C -.15 65.572 -1.807 66.679 -3.916 67.396 C -6.024 68.111 -8.736 68.471 -12.049 68.471 L -75.006 68.471 C -76.813 68.471 -77.716 69.757 -77.716 72.334 L -77.716 90.362 C -77.716 92.939 -76.813 94.226 -75.006 94.226 Z "/>
<path transform="matrix(2.7777777,0,0,-2.7777777,4123.51,1061.5684)" d="M 0 0 L 0 28.334 C 0 31.48 1.103 33.055 3.314 33.055 L 18.224 33.055 C 20.431 33.055 21.537 31.48 21.537 28.334 L 21.537 0 L 47.895 0 C 49.703 0 50.606 -1.287 50.606 -3.863 L 50.606 -21.463 C 50.606 -24.038 49.703 -25.327 47.895 -25.327 L 21.537 -25.327 L 21.537 -75.124 C 21.537 -81.133 22.39 -85.532 24.098 -88.323 C 25.804 -91.113 29.167 -92.509 34.19 -92.509 L 48.8 -92.509 C 50.606 -92.509 51.511 -93.797 51.511 -96.372 L 51.511 -113.972 C 51.511 -116.549 50.606 -117.835 48.8 -117.835 L 30.575 -117.835 C 24.55 -117.835 19.581 -117.051 15.663 -115.475 C 11.748 -113.902 8.609 -111.396 6.25 -107.963 C 3.89 -104.528 2.258 -100.094 1.355 -94.654 C .452 -89.219 0 -82.71 0 -75.124 L 0 -25.327 L -14.309 -25.327 C -16.116 -25.327 -17.021 -24.038 -17.021 -21.463 L -17.021 -3.863 C -17.021 -1.287 -16.116 0 -14.309 0 Z "/>
<path transform="matrix(2.7777777,0,0,-2.7777777,2051.0198,1554.8775)" d="M 0 0 C 0 -2.707 -.57 -5.114 -1.711 -7.222 C -2.852 -9.329 -4.553 -10.982 -6.814 -12.181 C -9.076 -13.379 -11.793 -13.979 -14.964 -13.979 C -19.759 -13.979 -23.432 -12.712 -25.984 -10.18 C -28.535 -7.647 -29.812 -4.254 -29.812 0 L -29.812 26.97 L -22.156 26.97 L -22.156 .405 C -22.156 -2.417 -21.566 -4.524 -20.387 -5.916 C -19.207 -7.309 -17.4 -8.005 -14.964 -8.005 C -12.49 -8.005 -10.662 -7.309 -9.482 -5.916 C -8.304 -4.524 -7.714 -2.417 -7.714 .405 L -7.714 26.97 L 0 26.97 Z " fill="#262626"/>
<path transform="matrix(2.7777777,0,0,-2.7777777,2139.7108,1510.4924)" d="M 0 0 C 1.526 -1.644 2.291 -3.935 2.291 -6.873 L 2.291 -29.087 L -5.133 -29.087 L -5.133 -8.033 C -5.133 -6.216 -5.452 -4.939 -6.09 -4.205 C -6.728 -3.471 -7.666 -3.103 -8.903 -3.103 C -10.179 -3.103 -11.33 -3.5 -12.354 -4.292 C -13.379 -5.085 -14.375 -6.235 -15.341 -7.743 L -15.341 -29.087 L -22.765 -29.087 L -22.765 1.595 L -16.327 1.595 L -15.747 -2.407 C -13.233 .841 -10.121 2.465 -6.409 2.465 C -3.664 2.465 -1.528 1.644 0 0 " fill="#262626"/>
<path transform="matrix(2.7777777,0,0,-2.7777777,0,3000)" d="M 789.232 507.136 L 781.808 507.136 L 781.808 537.818 L 789.232 537.818 Z M 788.855 552.057 C 789.726 551.187 790.16 550.113 790.16 548.838 C 790.16 547.562 789.726 546.498 788.855 545.647 C 787.986 544.797 786.855 544.372 785.463 544.372 C 784.109 544.372 782.998 544.797 782.128 545.647 C 781.258 546.498 780.822 547.562 780.822 548.838 C 780.822 550.113 781.258 551.187 782.128 552.057 C 782.998 552.927 784.109 553.361 785.463 553.361 C 786.855 553.361 787.986 552.927 788.855 552.057 " fill="#262626"/>
<path transform="matrix(2.7777777,0,0,-2.7777777,2261.9114,1575.4205)" d="M 0 0 C 1.005 .638 1.952 1.633 2.843 2.987 L 2.843 17.023 C 1.952 18.105 1.054 18.917 .146 19.459 C -.764 20 -1.817 20.271 -3.016 20.271 C -4.987 20.271 -6.545 19.392 -7.685 17.632 C -8.825 15.872 -9.396 13.214 -9.396 9.657 C -9.396 5.867 -8.894 3.151 -7.888 1.508 C -6.883 -.136 -5.413 -.957 -3.479 -.957 C -2.165 -.957 -1.006 -.638 0 0 M 10.267 37.265 L 10.267 -5.713 L 3.712 -5.713 L 3.19 -1.827 C 2.224 -3.297 .995 -4.457 -.493 -5.307 C -1.981 -6.157 -3.674 -6.583 -5.567 -6.583 C -9.319 -6.583 -12.2 -5.133 -14.21 -2.232 C -16.221 .667 -17.226 4.611 -17.226 9.599 C -17.226 12.731 -16.724 15.524 -15.718 17.98 C -14.713 20.436 -13.272 22.359 -11.397 23.751 C -9.522 25.144 -7.347 25.839 -4.872 25.839 C -1.934 25.839 .638 24.737 2.843 22.533 L 2.843 38.077 Z " fill="#262626"/>
<path transform="matrix(2.7777777,0,0,-2.7777777,2359.546,1568.2509)" d="M 0 0 L 0 6.206 L -3.073 6.206 C -7.869 6.206 -10.267 4.427 -10.267 .87 C -10.267 -.6 -9.899 -1.74 -9.164 -2.552 C -8.43 -3.364 -7.347 -3.77 -5.916 -3.77 C -3.403 -3.77 -1.431 -2.514 0 0 M 7.858 -2.813 C 8.226 -3.374 8.815 -3.809 9.628 -4.118 L 8.062 -9.048 C 6.322 -8.893 4.901 -8.468 3.799 -7.771 C 2.697 -7.076 1.856 -6.013 1.276 -4.582 C .231 -6.129 -1.073 -7.279 -2.64 -8.033 C -4.205 -8.787 -5.955 -9.164 -7.888 -9.164 C -10.942 -9.164 -13.36 -8.294 -15.138 -6.554 C -16.917 -4.813 -17.806 -2.533 -17.806 .29 C -17.806 3.615 -16.599 6.157 -14.181 7.917 C -11.765 9.676 -8.313 10.556 -3.828 10.556 L 0 10.556 L 0 12.296 C 0 14.268 -.455 15.65 -1.362 16.443 C -2.272 17.235 -3.731 17.632 -5.741 17.632 C -7.985 17.632 -10.692 17.09 -13.862 16.008 L -15.603 21.054 C -11.774 22.523 -8.062 23.258 -4.466 23.258 C 3.384 23.258 7.308 19.739 7.308 12.702 L 7.308 -.174 C 7.308 -1.373 7.491 -2.253 7.858 -2.813 " fill="#262626"/>
<path transform="matrix(2.7777777,0,0,-2.7777777,2449.6038,1575.4205)" d="M 0 0 C 1.006 .638 1.952 1.633 2.842 2.987 L 2.842 17.023 C 1.952 18.105 1.053 18.917 .145 19.459 C -.764 20 -1.818 20.271 -3.016 20.271 C -4.988 20.271 -6.545 19.392 -7.685 17.632 C -8.826 15.872 -9.396 13.214 -9.396 9.657 C -9.396 5.867 -8.894 3.151 -7.888 1.508 C -6.883 -.136 -5.414 -.957 -3.48 -.957 C -2.166 -.957 -1.006 -.638 0 0 M 10.266 37.265 L 10.266 -5.713 L 3.713 -5.713 L 3.19 -1.827 C 2.223 -3.297 .995 -4.457 -.492 -5.307 C -1.982 -6.157 -3.674 -6.583 -5.568 -6.583 C -9.318 -6.583 -12.199 -5.133 -14.21 -2.232 C -16.221 .667 -17.226 4.611 -17.226 9.599 C -17.226 12.731 -16.724 15.524 -15.718 17.98 C -14.713 20.436 -13.272 22.359 -11.396 23.751 C -9.521 25.144 -7.347 25.839 -4.871 25.839 C -1.934 25.839 .639 24.737 2.842 22.533 L 2.842 38.077 Z " fill="#262626"/>
<path transform="matrix(2.7777777,0,0,-2.7777777,2589.6107,1575.4205)" d="M 0 0 C 1.006 .638 1.952 1.633 2.842 2.987 L 2.842 17.023 C 1.952 18.105 1.053 18.917 .145 19.459 C -.764 20 -1.818 20.271 -3.016 20.271 C -4.988 20.271 -6.545 19.392 -7.685 17.632 C -8.826 15.872 -9.396 13.214 -9.396 9.657 C -9.396 5.867 -8.894 3.151 -7.888 1.508 C -6.883 -.136 -5.414 -.957 -3.48 -.957 C -2.166 -.957 -1.006 -.638 0 0 M 10.266 37.265 L 10.266 -5.713 L 3.713 -5.713 L 3.19 -1.827 C 2.223 -3.297 .995 -4.457 -.492 -5.307 C -1.982 -6.157 -3.674 -6.583 -5.568 -6.583 C -9.318 -6.583 -12.199 -5.133 -14.21 -2.232 C -16.221 .667 -17.226 4.611 -17.226 9.599 C -17.226 12.731 -16.724 15.524 -15.718 17.98 C -14.713 20.436 -13.272 22.359 -11.396 23.751 C -9.521 25.144 -7.347 25.839 -4.871 25.839 C -1.934 25.839 .639 24.737 2.842 22.533 L 2.842 38.077 Z " fill="#262626"/>
<path transform="matrix(2.7777777,0,0,-2.7777777,2694.0103,1540.7007)" d="M 0 0 C 0 5.374 -1.992 8.063 -5.975 8.063 C -7.792 8.063 -9.213 7.396 -10.236 6.062 C -11.262 4.728 -11.871 2.59 -12.064 -.348 L 0 -.348 Z M 7.191 -5.162 L -12.064 -5.162 C -11.832 -8.14 -11.059 -10.266 -9.744 -11.542 C -8.43 -12.818 -6.689 -13.456 -4.523 -13.456 C -3.171 -13.456 -1.895 -13.233 -.695 -12.789 C .502 -12.345 1.778 -11.658 3.132 -10.729 L 6.206 -14.964 C 2.803 -17.71 -.986 -19.082 -5.162 -19.082 C -9.841 -19.082 -13.447 -17.651 -15.979 -14.79 C -18.512 -11.929 -19.777 -8.023 -19.777 -3.074 C -19.777 .058 -19.236 2.871 -18.154 5.365 C -17.072 7.859 -15.506 9.812 -13.456 11.223 C -11.406 12.634 -8.971 13.34 -6.148 13.34 C -1.855 13.34 1.469 11.978 3.828 9.251 C 6.186 6.525 7.366 2.727 7.366 -2.146 C 7.366 -2.533 7.309 -3.538 7.191 -5.162 " fill="#262626"/>
<path transform="matrix(2.7777777,0,0,-2.7777777,2827.0889,1531.7599)" d="M 0 0 C 1.391 1.141 2.088 3.104 2.088 5.888 C 2.088 10.644 -.678 13.021 -6.207 13.021 L -10.324 13.021 L -10.324 -1.711 L -6.207 -1.711 C -3.462 -1.711 -1.393 -1.141 0 0 M 5.828 15.457 C 8.67 13.33 10.092 10.141 10.092 5.888 C 10.092 1.44 8.66 -1.895 5.799 -4.117 C 2.938 -6.342 -.871 -7.453 -5.627 -7.453 L -10.324 -7.453 L -10.324 -21.431 L -17.98 -21.431 L -17.98 18.647 L -6.148 18.647 C -1.007 18.647 2.986 17.583 5.828 15.457 " fill="#262626"/>
<path transform="matrix(2.7777777,0,0,-2.7777777,2920.6922,1504.9345)" d="M 0 0 L -1.275 -7.191 C -2.203 -6.96 -3.113 -6.844 -4.002 -6.844 C -5.82 -6.844 -7.25 -7.492 -8.294 -8.787 C -9.338 -10.083 -10.17 -12.063 -10.787 -14.731 L -10.787 -31.088 L -18.212 -31.088 L -18.212 -.406 L -11.773 -.406 L -11.078 -6.437 C -10.344 -4.234 -9.279 -2.543 -7.888 -1.363 C -6.496 -.184 -4.892 .406 -3.074 .406 C -1.953 .406 -.928 .271 0 0 " fill="#262626"/>
<path transform="matrix(2.7777777,0,0,-2.7777777,2946.6309,1548.5946)" d="M 0 0 C 0 -3.635 .551 -6.313 1.653 -8.033 C 2.756 -9.754 4.408 -10.614 6.612 -10.614 C 8.816 -10.614 10.469 -9.744 11.571 -8.004 C 12.674 -6.264 13.225 -3.596 13.225 0 C 13.225 3.596 12.674 6.254 11.571 7.975 C 10.469 9.695 8.836 10.556 6.67 10.556 C 2.223 10.556 0 7.037 0 0 M 17.256 11.861 C 19.787 8.979 21.055 5.026 21.055 0 C 21.055 -3.21 20.475 -6.042 19.314 -8.497 C 18.154 -10.953 16.491 -12.857 14.326 -14.21 C 12.16 -15.563 9.59 -16.24 6.612 -16.24 C 2.088 -16.24 -1.449 -14.8 -4.002 -11.919 C -6.554 -9.039 -7.83 -5.066 -7.83 0 C -7.83 3.209 -7.25 6.032 -6.09 8.468 C -4.93 10.904 -3.258 12.798 -1.072 14.152 C 1.111 15.505 3.692 16.182 6.67 16.182 C 11.194 16.182 14.723 14.741 17.256 11.861 " fill="#262626"/>
<path transform="matrix(2.7777777,0,0,-2.7777777,3069.2384,1575.4205)" d="M 0 0 C 1.005 .638 1.951 1.633 2.842 2.987 L 2.842 17.023 C 1.951 18.105 1.053 18.917 .145 19.459 C -.764 20 -1.818 20.271 -3.016 20.271 C -4.988 20.271 -6.545 19.392 -7.686 17.632 C -8.826 15.872 -9.396 13.214 -9.396 9.657 C -9.396 5.867 -8.895 3.151 -7.889 1.508 C -6.883 -.136 -5.414 -.957 -3.48 -.957 C -2.166 -.957 -1.006 -.638 0 0 M 10.266 37.265 L 10.266 -5.713 L 3.712 -5.713 L 3.189 -1.827 C 2.223 -3.297 .994 -4.457 -.493 -5.307 C -1.982 -6.157 -3.674 -6.583 -5.568 -6.583 C -9.319 -6.583 -12.2 -5.133 -14.211 -2.232 C -16.221 .667 -17.227 4.611 -17.227 9.599 C -17.227 12.731 -16.725 15.524 -15.719 17.98 C -14.713 20.436 -13.273 22.359 -11.397 23.751 C -9.522 25.144 -7.348 25.839 -4.872 25.839 C -1.934 25.839 .638 24.737 2.842 22.533 L 2.842 38.077 Z " fill="#262626"/>
<path transform="matrix(2.7777777,0,0,-2.7777777,3192.3258,1591.2896)" d="M 0 0 L -6.438 0 L -6.845 4.292 C -7.966 2.552 -9.29 1.256 -10.817 .406 C -12.345 -.444 -14.151 -.87 -16.24 -.87 C -18.985 -.87 -21.103 -.029 -22.591 1.653 C -24.08 3.335 -24.824 5.664 -24.824 8.642 L -24.824 30.682 L -17.399 30.682 L -17.399 9.57 C -17.399 7.83 -17.101 6.592 -16.501 5.858 C -15.901 5.123 -14.944 4.756 -13.63 4.756 C -11.272 4.756 -9.203 6.206 -7.424 9.106 L -7.424 30.682 L 0 30.682 Z " fill="#262626"/>
<path transform="matrix(2.7777777,0,0,-2.7777777,3268.1287,1506.0628)" d="M 0 0 C 1.604 -.58 3.122 -1.488 4.553 -2.726 L 1.247 -7.191 C .202 -6.419 -.804 -5.857 -1.769 -5.51 C -2.736 -5.162 -3.8 -4.987 -4.959 -4.987 C -9.562 -4.987 -11.861 -8.487 -11.861 -15.485 C -11.861 -19.044 -11.263 -21.604 -10.063 -23.171 C -8.865 -24.736 -7.163 -25.52 -4.959 -25.52 C -3.877 -25.52 -2.882 -25.346 -1.972 -24.998 C -1.063 -24.649 .009 -24.09 1.247 -23.315 L 4.553 -28.014 C 1.653 -30.373 -1.653 -31.552 -5.365 -31.552 C -8.304 -31.552 -10.856 -30.903 -13.021 -29.608 C -15.187 -28.313 -16.849 -26.468 -18.009 -24.069 C -19.169 -21.673 -19.749 -18.85 -19.749 -15.602 C -19.749 -12.354 -19.169 -9.482 -18.009 -6.988 C -16.849 -4.495 -15.187 -2.562 -13.021 -1.188 C -10.856 .184 -8.323 .87 -5.423 .87 C -3.413 .87 -1.604 .58 0 0 " fill="#262626"/>
<path transform="matrix(2.7777777,0,0,-2.7777777,3346.1859,1587.2612)" d="M 0 0 C -1.083 -.774 -2.291 -1.354 -3.625 -1.74 C -4.959 -2.126 -6.322 -2.32 -7.714 -2.32 C -10.73 -2.281 -13.021 -1.421 -14.587 .261 C -16.152 1.942 -16.936 4.427 -16.936 7.714 L -16.936 23.896 L -21.75 23.896 L -21.75 29.231 L -16.936 29.231 L -16.936 36.018 L -9.512 36.888 L -9.512 29.231 L -2.378 29.231 L -3.132 23.896 L -9.512 23.896 L -9.512 7.888 C -9.512 6.38 -9.251 5.297 -8.729 4.64 C -8.207 3.981 -7.386 3.653 -6.264 3.653 C -5.143 3.653 -3.925 4.021 -2.609 4.756 Z " fill="#262626"/>
<path transform="matrix(2.7777777,0,0,-2.7777777,3372.9329,1548.5946)" d="M 0 0 C 0 -3.635 .551 -6.313 1.652 -8.033 C 2.754 -9.754 4.407 -10.614 6.611 -10.614 C 8.815 -10.614 10.469 -9.744 11.57 -8.004 C 12.672 -6.264 13.223 -3.596 13.223 0 C 13.223 3.596 12.672 6.254 11.57 7.975 C 10.469 9.695 8.834 10.556 6.67 10.556 C 2.223 10.556 0 7.037 0 0 M 17.254 11.861 C 19.786 8.979 21.053 5.026 21.053 0 C 21.053 -3.21 20.473 -6.042 19.313 -8.497 C 18.153 -10.953 16.49 -12.857 14.325 -14.21 C 12.159 -15.563 9.588 -16.24 6.611 -16.24 C 2.088 -16.24 -1.451 -14.8 -4.003 -11.919 C -6.555 -9.039 -7.83 -5.066 -7.83 0 C -7.83 3.209 -7.25 6.032 -6.091 8.468 C -4.931 10.904 -3.259 12.798 -1.074 14.152 C 1.11 15.505 3.691 16.182 6.67 16.182 C 11.193 16.182 14.721 14.741 17.254 11.861 " fill="#262626"/>
<path transform="matrix(2.7777777,0,0,-2.7777777,3509.554,1513.794)" d="M 0 0 L -2.9 -4.351 C -5.531 -2.688 -8.102 -1.856 -10.615 -1.856 C -12.084 -1.856 -13.225 -2.138 -14.037 -2.697 C -14.849 -3.259 -15.255 -4.002 -15.255 -4.931 C -15.255 -5.626 -15.08 -6.206 -14.732 -6.671 C -14.385 -7.135 -13.757 -7.569 -12.848 -7.976 C -11.939 -8.382 -10.596 -8.836 -8.816 -9.339 C -5.492 -10.229 -3.026 -11.407 -1.422 -12.876 C .183 -14.347 .985 -16.396 .985 -19.024 C .985 -22.079 -.252 -24.468 -2.727 -26.187 C -5.201 -27.907 -8.275 -28.769 -11.949 -28.769 C -14.463 -28.769 -16.754 -28.382 -18.822 -27.608 C -20.891 -26.835 -22.679 -25.772 -24.187 -24.418 L -20.475 -20.242 C -17.807 -22.253 -15.022 -23.259 -12.123 -23.259 C -10.461 -23.259 -9.136 -22.931 -8.149 -22.272 C -7.164 -21.615 -6.67 -20.706 -6.67 -19.547 C -6.67 -18.657 -6.854 -17.951 -7.222 -17.43 C -7.59 -16.907 -8.246 -16.443 -9.193 -16.037 C -10.142 -15.632 -11.621 -15.139 -13.631 -14.559 C -16.763 -13.708 -19.063 -12.52 -20.533 -10.991 C -22.002 -9.465 -22.736 -7.561 -22.736 -5.278 C -22.736 -3.577 -22.244 -2.051 -21.258 -.696 C -20.271 .656 -18.88 1.72 -17.082 2.493 C -15.283 3.267 -13.225 3.653 -10.904 3.653 C -6.768 3.653 -3.133 2.436 0 0 " fill="#262626"/>
<path transform="matrix(2.7777777,0,0,-2.7777777,3655.3575,1591.2896)" d="M 0 0 L -9.918 0 L -23.664 32.422 C -23.315 29.561 -23.055 26.97 -22.881 24.65 C -22.707 22.33 -22.62 19.565 -22.62 16.356 L -22.62 0 L -29.579 0 L -29.579 40.078 L -19.894 40.078 L -5.916 7.598 C -6.147 9.145 -6.38 11.184 -6.612 13.717 C -6.844 16.249 -6.96 18.772 -6.96 21.286 L -6.96 40.078 L 0 40.078 Z " fill="#262626"/>
<path transform="matrix(2.7777777,0,0,-2.7777777,3725.1192,1568.2509)" d="M 0 0 L 0 6.206 L -3.074 6.206 C -7.869 6.206 -10.267 4.427 -10.267 .87 C -10.267 -.6 -9.899 -1.74 -9.164 -2.552 C -8.43 -3.364 -7.348 -3.77 -5.916 -3.77 C -3.403 -3.77 -1.432 -2.514 0 0 M 7.858 -2.813 C 8.226 -3.374 8.815 -3.809 9.627 -4.118 L 8.062 -9.048 C 6.322 -8.893 4.9 -8.468 3.799 -7.771 C 2.697 -7.076 1.855 -6.013 1.275 -4.582 C .231 -6.129 -1.073 -7.279 -2.64 -8.033 C -4.205 -8.787 -5.955 -9.164 -7.889 -9.164 C -10.943 -9.164 -13.36 -8.294 -15.139 -6.554 C -16.918 -4.813 -17.807 -2.533 -17.807 .29 C -17.807 3.615 -16.599 6.157 -14.182 7.917 C -11.766 9.676 -8.314 10.556 -3.828 10.556 L 0 10.556 L 0 12.296 C 0 14.268 -.455 15.65 -1.363 16.443 C -2.272 17.235 -3.732 17.632 -5.742 17.632 C -7.985 17.632 -10.692 17.09 -13.862 16.008 L -15.603 21.054 C -11.774 22.523 -8.063 23.258 -4.467 23.258 C 3.383 23.258 7.308 19.739 7.308 12.702 L 7.308 -.174 C 7.308 -1.373 7.49 -2.253 7.858 -2.813 " fill="#262626"/>
<path transform="matrix(2.7777777,0,0,-2.7777777,3820.817,1587.2612)" d="M 0 0 C -1.083 -.774 -2.291 -1.354 -3.625 -1.74 C -4.959 -2.126 -6.322 -2.32 -7.714 -2.32 C -10.73 -2.281 -13.021 -1.421 -14.587 .261 C -16.152 1.942 -16.936 4.427 -16.936 7.714 L -16.936 23.896 L -21.75 23.896 L -21.75 29.231 L -16.936 29.231 L -16.936 36.018 L -9.512 36.888 L -9.512 29.231 L -2.378 29.231 L -3.132 23.896 L -9.512 23.896 L -9.512 7.888 C -9.512 6.38 -9.251 5.297 -8.729 4.64 C -8.207 3.981 -7.386 3.653 -6.264 3.653 C -5.143 3.653 -3.925 4.021 -2.609 4.756 Z " fill="#262626"/>
<path transform="matrix(2.7777777,0,0,-2.7777777,3902.1783,1591.2896)" d="M 0 0 L -6.438 0 L -6.845 4.292 C -7.966 2.552 -9.29 1.256 -10.817 .406 C -12.345 -.444 -14.151 -.87 -16.24 -.87 C -18.985 -.87 -21.103 -.029 -22.591 1.653 C -24.08 3.335 -24.824 5.664 -24.824 8.642 L -24.824 30.682 L -17.399 30.682 L -17.399 9.57 C -17.399 7.83 -17.101 6.592 -16.501 5.858 C -15.901 5.123 -14.944 4.756 -13.63 4.756 C -11.272 4.756 -9.203 6.206 -7.424 9.106 L -7.424 30.682 L 0 30.682 Z " fill="#262626"/>
<path transform="matrix(2.7777777,0,0,-2.7777777,3979.1883,1504.9345)" d="M 0 0 L -1.275 -7.191 C -2.203 -6.96 -3.113 -6.844 -4.002 -6.844 C -5.82 -6.844 -7.25 -7.492 -8.294 -8.787 C -9.338 -10.083 -10.17 -12.063 -10.787 -14.731 L -10.787 -31.088 L -18.212 -31.088 L -18.212 -.406 L -11.773 -.406 L -11.078 -6.437 C -10.344 -4.234 -9.279 -2.543 -7.888 -1.363 C -6.496 -.184 -4.892 .406 -3.074 .406 C -1.953 .406 -.928 .271 0 0 " fill="#262626"/>
<path transform="matrix(2.7777777,0,0,-2.7777777,4030.7454,1568.2509)" d="M 0 0 L 0 6.206 L -3.074 6.206 C -7.869 6.206 -10.266 4.427 -10.266 .87 C -10.266 -.6 -9.898 -1.74 -9.164 -2.552 C -8.43 -3.364 -7.347 -3.77 -5.916 -3.77 C -3.402 -3.77 -1.431 -2.514 0 0 M 7.859 -2.813 C 8.227 -3.374 8.816 -3.809 9.628 -4.118 L 8.063 -9.048 C 6.322 -8.893 4.9 -8.468 3.799 -7.771 C 2.697 -7.076 1.855 -6.013 1.275 -4.582 C .232 -6.129 -1.072 -7.279 -2.639 -8.033 C -4.205 -8.787 -5.955 -9.164 -7.888 -9.164 C -10.943 -9.164 -13.359 -8.294 -15.138 -6.554 C -16.917 -4.813 -17.807 -2.533 -17.807 .29 C -17.807 3.615 -16.598 6.157 -14.182 7.917 C -11.765 9.676 -8.314 10.556 -3.828 10.556 L 0 10.556 L 0 12.296 C 0 14.268 -.455 15.65 -1.363 16.443 C -2.271 17.235 -3.732 17.632 -5.742 17.632 C -7.984 17.632 -10.691 17.09 -13.861 16.008 L -15.602 21.054 C -11.773 22.523 -8.063 23.258 -4.466 23.258 C 3.383 23.258 7.309 19.739 7.309 12.702 L 7.309 -.174 C 7.309 -1.373 7.491 -2.253 7.859 -2.813 " fill="#262626"/>
<path transform="matrix(2.7777777,0,0,-2.7777777,4080.767,1587.9855)" d="M 0 0 C -1.334 1.372 -2 3.314 -2 5.828 L -2 41.788 L 5.424 42.601 L 5.424 6.061 C 5.424 4.63 6.004 3.914 7.164 3.914 C 7.744 3.914 8.324 4.011 8.904 4.204 L 10.47 -1.016 C 8.923 -1.712 7.279 -2.06 5.539 -2.06 C 3.181 -2.06 1.335 -1.372 0 0 " fill="#262626"/>
<path transform="matrix(2.7777777,0,0,-2.7777777,4173.8117,1540.7007)" d="M 0 0 C 0 5.374 -1.991 8.063 -5.974 8.063 C -7.791 8.063 -9.213 7.396 -10.236 6.062 C -11.262 4.728 -11.871 2.59 -12.063 -.348 L 0 -.348 Z M 7.192 -5.162 L -12.063 -5.162 C -11.832 -8.14 -11.059 -10.266 -9.744 -11.542 C -8.43 -12.818 -6.689 -13.456 -4.523 -13.456 C -3.17 -13.456 -1.895 -13.233 -.695 -12.789 C .502 -12.345 1.779 -11.658 3.133 -10.729 L 6.207 -14.964 C 2.804 -17.71 -.985 -19.082 -5.162 -19.082 C -9.84 -19.082 -13.446 -17.651 -15.979 -14.79 C -18.512 -11.929 -19.777 -8.023 -19.777 -3.074 C -19.777 .058 -19.236 2.871 -18.153 5.365 C -17.071 7.859 -15.506 9.812 -13.455 11.223 C -11.406 12.634 -8.971 13.34 -6.147 13.34 C -1.855 13.34 1.47 11.978 3.828 9.251 C 6.187 6.525 7.367 2.727 7.367 -2.146 C 7.367 -2.533 7.309 -3.538 7.192 -5.162 " fill="#262626"/>
<path transform="matrix(2.7777777,0,0,-2.7777777,4271.609,1513.794)" d="M 0 0 L -2.9 -4.351 C -5.531 -2.688 -8.102 -1.856 -10.615 -1.856 C -12.084 -1.856 -13.225 -2.138 -14.037 -2.697 C -14.849 -3.259 -15.255 -4.002 -15.255 -4.931 C -15.255 -5.626 -15.08 -6.206 -14.732 -6.671 C -14.385 -7.135 -13.757 -7.569 -12.848 -7.976 C -11.939 -8.382 -10.596 -8.836 -8.816 -9.339 C -5.492 -10.229 -3.026 -11.407 -1.422 -12.876 C .183 -14.347 .985 -16.396 .985 -19.024 C .985 -22.079 -.252 -24.468 -2.727 -26.187 C -5.201 -27.907 -8.275 -28.769 -11.949 -28.769 C -14.463 -28.769 -16.754 -28.382 -18.822 -27.608 C -20.891 -26.835 -22.679 -25.772 -24.187 -24.418 L -20.475 -20.242 C -17.807 -22.253 -15.022 -23.259 -12.123 -23.259 C -10.461 -23.259 -9.136 -22.931 -8.149 -22.272 C -7.164 -21.615 -6.67 -20.706 -6.67 -19.547 C -6.67 -18.657 -6.854 -17.951 -7.222 -17.43 C -7.59 -16.907 -8.246 -16.443 -9.193 -16.037 C -10.142 -15.632 -11.621 -15.139 -13.631 -14.559 C -16.763 -13.708 -19.063 -12.52 -20.533 -10.991 C -22.002 -9.465 -22.736 -7.561 -22.736 -5.278 C -22.736 -3.577 -22.244 -2.051 -21.258 -.696 C -20.271 .656 -18.88 1.72 -17.082 2.493 C -15.283 3.267 -13.225 3.653 -10.904 3.653 C -6.768 3.653 -3.133 2.436 0 0 " fill="#262626"/>
<path transform="matrix(2.7777777,0,0,-2.7777777,3102.3438,1663.3463)" d="M 0 0 L 0 -27.114 L 3.576 -27.114 C 6.802 -27.114 9.332 -26.116 11.166 -24.117 C 12.998 -22.119 13.916 -18.534 13.916 -13.364 C 13.916 -9.771 13.448 -6.994 12.514 -5.032 C 11.578 -3.071 10.35 -1.741 8.828 -1.045 C 7.307 -.349 5.482 0 3.355 0 Z M 16.253 1.431 C 19.791 -1.246 21.561 -6.179 21.561 -13.364 C 21.561 -20.404 19.818 -25.364 16.336 -28.242 C 12.852 -31.121 8.434 -32.56 3.08 -32.56 L -7.26 -32.56 L -7.26 5.445 L 2.091 5.445 C 7.994 5.445 12.715 4.106 16.253 1.431 " fill="#346469"/>
<path transform="matrix(2.7777777,0,0,-2.7777777,3230.0672,1671.8993)" d="M 0 0 L -1.21 -6.82 C -2.09 -6.601 -2.951 -6.49 -3.795 -6.49 C -5.519 -6.49 -6.875 -7.104 -7.865 -8.333 C -8.855 -9.562 -9.644 -11.44 -10.23 -13.971 L -10.23 -29.48 L -17.27 -29.48 L -17.27 -.386 L -11.165 -.386 L -10.505 -6.105 C -9.809 -4.016 -8.8 -2.412 -7.48 -1.293 C -6.16 -.175 -4.639 .385 -2.915 .385 C -1.852 .385 -.88 .256 0 0 " fill="#346469"/>
<path transform="matrix(2.7777777,0,0,-2.7777777,3246.8748,1734.9202)" d="M 0 0 C .88 -.862 1.32 -1.917 1.32 -3.163 C 1.32 -4.373 .88 -5.418 0 -6.298 C -.881 -7.178 -1.944 -7.618 -3.19 -7.618 C -4.4 -7.618 -5.437 -7.178 -6.298 -6.298 C -7.16 -5.418 -7.59 -4.373 -7.59 -3.163 C -7.59 -1.917 -7.17 -.862 -6.325 0 C -5.482 .86 -4.437 1.292 -3.19 1.292 C -1.944 1.292 -.881 .86 0 0 " fill="#346469"/>
<path transform="matrix(2.7777777,0,0,-2.7777777,3367.2606,1648.6788)" d="M 0 0 C 1.724 -.66 3.41 -1.669 5.06 -3.024 L 1.375 -7.314 C -.862 -5.519 -3.209 -4.62 -5.665 -4.62 C -8.489 -4.62 -10.753 -5.757 -12.458 -8.03 C -14.163 -10.304 -15.015 -13.879 -15.015 -18.755 C -15.015 -23.521 -14.172 -27.06 -12.485 -29.37 C -10.799 -31.68 -8.524 -32.835 -5.665 -32.835 C -4.161 -32.835 -2.823 -32.569 -1.649 -32.037 C -.478 -31.506 .771 -30.745 2.091 -29.755 L 5.5 -34.045 C 4.216 -35.365 2.594 -36.465 .633 -37.345 C -1.329 -38.225 -3.521 -38.665 -5.94 -38.665 C -9.239 -38.665 -12.155 -37.895 -14.685 -36.354 C -17.215 -34.814 -19.177 -32.551 -20.569 -29.562 C -21.964 -26.574 -22.659 -22.972 -22.659 -18.755 C -22.659 -14.611 -21.937 -11.055 -20.487 -8.085 C -19.04 -5.115 -17.06 -2.859 -14.548 -1.32 C -12.036 .22 -9.204 .99 -6.05 .99 C -3.739 .99 -1.724 .66 0 0 " fill="#346469"/>
<path transform="matrix(2.7777777,0,0,-2.7777777,3436.7757,1731.9417)" d="M 0 0 L 0 5.885 L -2.915 5.885 C -7.462 5.885 -9.735 4.198 -9.735 .825 C -9.735 -.569 -9.388 -1.65 -8.69 -2.42 C -7.994 -3.19 -6.967 -3.575 -5.61 -3.575 C -3.228 -3.575 -1.356 -2.384 0 0 M 7.452 -2.668 C 7.8 -3.199 8.36 -3.612 9.13 -3.905 L 7.646 -8.58 C 5.995 -8.434 4.647 -8.03 3.603 -7.37 C 2.558 -6.71 1.76 -5.702 1.21 -4.346 C .22 -5.812 -1.018 -6.902 -2.503 -7.618 C -3.987 -8.333 -5.647 -8.69 -7.479 -8.69 C -10.377 -8.69 -12.669 -7.865 -14.354 -6.215 C -16.042 -4.565 -16.886 -2.402 -16.886 .274 C -16.886 3.428 -15.739 5.838 -13.448 7.507 C -11.156 9.176 -7.884 10.01 -3.63 10.01 L 0 10.01 L 0 11.66 C 0 13.529 -.432 14.84 -1.292 15.592 C -2.154 16.344 -3.539 16.72 -5.444 16.72 C -7.571 16.72 -10.14 16.206 -13.146 15.18 L -14.795 19.965 C -11.165 21.357 -7.646 22.055 -4.235 22.055 C 3.208 22.055 6.931 18.718 6.931 12.045 L 6.931 -.165 C 6.931 -1.302 7.104 -2.137 7.452 -2.668 " fill="#346469"/>
<path transform="matrix(2.7777777,0,0,-2.7777777,3529.2047,1671.8993)" d="M 0 0 L -1.211 -6.82 C -2.09 -6.601 -2.952 -6.49 -3.795 -6.49 C -5.52 -6.49 -6.875 -7.104 -7.865 -8.333 C -8.855 -9.562 -9.645 -11.44 -10.23 -13.971 L -10.23 -29.48 L -17.271 -29.48 L -17.271 -.386 L -11.166 -.386 L -10.506 -6.105 C -9.809 -4.016 -8.801 -2.412 -7.48 -1.293 C -6.16 -.175 -4.639 .385 -2.916 .385 C -1.853 .385 -.881 .256 0 0 " fill="#346469"/>
<path transform="matrix(2.7777777,0,0,-2.7777777,3547.4608,1750.6564)" d="M 0 0 C -1.266 1.301 -1.897 3.144 -1.897 5.527 L -1.897 39.627 L 5.143 40.397 L 5.143 5.747 C 5.143 4.39 5.692 3.712 6.793 3.712 C 7.343 3.712 7.893 3.803 8.442 3.987 L 9.928 -.963 C 8.461 -1.623 6.902 -1.953 5.252 -1.953 C 3.016 -1.953 1.266 -1.302 0 0 " fill="#346469"/>
<path transform="matrix(2.7777777,0,0,-2.7777777,3604.2208,1713.3029)" d="M 0 0 C 0 -3.447 .521 -5.986 1.566 -7.618 C 2.611 -9.25 4.18 -10.065 6.27 -10.065 C 8.359 -10.065 9.927 -9.24 10.973 -7.59 C 12.018 -5.94 12.539 -3.41 12.539 0 C 12.539 3.41 12.018 5.931 10.973 7.562 C 9.927 9.193 8.377 10.01 6.324 10.01 C 2.107 10.01 0 6.673 0 0 M 16.361 11.247 C 18.764 8.516 19.965 4.766 19.965 0 C 19.965 -3.044 19.414 -5.729 18.314 -8.058 C 17.215 -10.387 15.638 -12.192 13.584 -13.476 C 11.531 -14.758 9.092 -15.4 6.27 -15.4 C 1.979 -15.4 -1.375 -14.034 -3.795 -11.303 C -6.215 -8.571 -7.426 -4.804 -7.426 0 C -7.426 3.043 -6.875 5.72 -5.775 8.03 C -4.676 10.34 -3.09 12.136 -1.018 13.42 C 1.053 14.703 3.5 15.345 6.324 15.345 C 10.614 15.345 13.96 13.979 16.361 11.247 " fill="#346469"/>
<path transform="matrix(2.7777777,0,0,-2.7777777,3733.7728,1680.3032)" d="M 0 0 L -2.75 -4.125 C -5.243 -2.549 -7.682 -1.76 -10.064 -1.76 C -11.458 -1.76 -12.539 -2.026 -13.309 -2.558 C -14.079 -3.09 -14.465 -3.795 -14.465 -4.675 C -14.465 -5.335 -14.299 -5.885 -13.969 -6.325 C -13.639 -6.765 -13.044 -7.178 -12.182 -7.562 C -11.32 -7.947 -10.047 -8.379 -8.359 -8.855 C -5.206 -9.699 -2.869 -10.817 -1.347 -12.21 C .174 -13.604 .936 -15.547 .936 -18.04 C .936 -20.937 -.238 -23.201 -2.584 -24.833 C -4.932 -26.464 -7.846 -27.28 -11.329 -27.28 C -13.713 -27.28 -15.886 -26.913 -17.847 -26.18 C -19.809 -25.447 -21.504 -24.439 -22.934 -23.155 L -19.414 -19.195 C -16.885 -21.102 -14.244 -22.055 -11.494 -22.055 C -9.918 -22.055 -8.662 -21.744 -7.727 -21.12 C -6.792 -20.497 -6.324 -19.635 -6.324 -18.535 C -6.324 -17.692 -6.498 -17.022 -6.847 -16.527 C -7.195 -16.032 -7.818 -15.593 -8.717 -15.208 C -9.615 -14.822 -11.018 -14.355 -12.924 -13.805 C -15.895 -12.999 -18.076 -11.871 -19.469 -10.423 C -20.863 -8.975 -21.559 -7.169 -21.559 -5.005 C -21.559 -3.392 -21.092 -1.944 -20.156 -.66 C -19.222 .623 -17.902 1.631 -16.197 2.365 C -14.492 3.098 -12.539 3.465 -10.34 3.465 C -6.416 3.465 -2.969 2.31 0 0 " fill="#346469"/>
<path transform="matrix(2.7777777,0,0,-2.7777777,3855.3846,1648.2205)" d="M 0 0 L -.77 -5.39 L -14.795 -5.39 L -14.795 -16.005 L -2.585 -16.005 L -2.585 -21.395 L -14.795 -21.395 L -14.795 -32.56 L .22 -32.56 L .22 -38.005 L -22.055 -38.005 L -22.055 0 Z " fill="#346469"/>
<path transform="matrix(2.7777777,0,0,-2.7777777,3891.2869,1734.9202)" d="M 0 0 C .881 -.862 1.32 -1.917 1.32 -3.163 C 1.32 -4.373 .881 -5.418 0 -6.298 C -.88 -7.178 -1.943 -7.618 -3.189 -7.618 C -4.4 -7.618 -5.436 -7.178 -6.297 -6.298 C -7.159 -5.418 -7.59 -4.373 -7.59 -3.163 C -7.59 -1.917 -7.169 -.862 -6.324 0 C -5.482 .86 -4.437 1.292 -3.189 1.292 C -1.943 1.292 -.88 .86 0 0 " fill="#346469"/>
<path transform="matrix(2.7777777,0,0,-2.7777777,4022.3687,1648.2205)" d="M 0 0 L -.77 -5.774 L -10.67 -5.774 L -10.67 -38.005 L -17.984 -38.005 L -17.984 -5.774 L -28.215 -5.774 L -28.215 0 Z " fill="#346469"/>
<path transform="matrix(2.7777777,0,0,-2.7777777,4043.454,1713.3029)" d="M 0 0 C 0 -3.447 .522 -5.986 1.567 -7.618 C 2.612 -9.25 4.181 -10.065 6.271 -10.065 C 8.36 -10.065 9.927 -9.24 10.973 -7.59 C 12.018 -5.94 12.54 -3.41 12.54 0 C 12.54 3.41 12.018 5.931 10.973 7.562 C 9.927 9.193 8.378 10.01 6.325 10.01 C 2.108 10.01 0 6.673 0 0 M 16.362 11.247 C 18.764 8.516 19.965 4.766 19.965 0 C 19.965 -3.044 19.415 -5.729 18.315 -8.058 C 17.215 -10.387 15.638 -12.192 13.585 -13.476 C 11.531 -14.758 9.093 -15.4 6.271 -15.4 C 1.979 -15.4 -1.375 -14.034 -3.795 -11.303 C -6.215 -8.571 -7.425 -4.804 -7.425 0 C -7.425 3.043 -6.875 5.72 -5.774 8.03 C -4.675 10.34 -3.089 12.136 -1.018 13.42 C 1.054 14.703 3.501 15.345 6.325 15.345 C 10.614 15.345 13.96 13.979 16.362 11.247 " fill="#346469"/>
<path transform="matrix(2.7777777,0,0,-2.7777777,4178.738,1677.1727)" d="M 0 0 C 1.448 -1.559 2.173 -3.73 2.173 -6.517 L 2.173 -27.582 L -4.867 -27.582 L -4.867 -7.617 C -4.867 -5.894 -5.17 -4.684 -5.775 -3.987 C -6.38 -3.291 -7.27 -2.942 -8.442 -2.942 C -9.652 -2.942 -10.744 -3.318 -11.715 -4.069 C -12.687 -4.821 -13.631 -5.912 -14.547 -7.342 L -14.547 -27.582 L -21.588 -27.582 L -21.588 1.513 L -15.482 1.513 L -14.932 -2.282 C -12.549 .798 -9.598 2.338 -6.077 2.338 C -3.475 2.338 -1.449 1.559 0 0 " fill="#346469"/>
<path transform="matrix(2.7777777,0,0,-2.7777777,4269.0295,1677.1727)" d="M 0 0 C 1.448 -1.559 2.173 -3.73 2.173 -6.517 L 2.173 -27.582 L -4.867 -27.582 L -4.867 -7.617 C -4.867 -5.894 -5.17 -4.684 -5.774 -3.987 C -6.38 -3.291 -7.269 -2.942 -8.442 -2.942 C -9.652 -2.942 -10.743 -3.318 -11.715 -4.069 C -12.687 -4.821 -13.632 -5.912 -14.548 -7.342 L -14.548 -27.582 L -21.587 -27.582 L -21.587 1.513 L -15.482 1.513 L -14.933 -2.282 C -12.55 .798 -9.597 2.338 -6.077 2.338 C -3.474 2.338 -1.448 1.559 0 0 " fill="#346469"/>
</g>
</g>
</g>
</svg>
