<?xml version="1.0" encoding="UTF-8" standalone="no"?>
<!DOCTYPE svg PUBLIC "-//W3C//DTD SVG 1.1//EN" "http://www.w3.org/Graphics/SVG/1.1/DTD/svg11.dtd">
<svg xmlns="http://www.w3.org/2000/svg" xmlns:xlink="http://www.w3.org/1999/xlink" version="1.1" width="5333.333pt" height="3000pt" viewBox="0 0 5333.333 3000">
<g enable-background="new">
<g id="Layer-1" data-name="Capa 1">
<path transform="matrix(2.7777777,0,0,-2.7777777,0,3000)" d="M 0 1079 L 1920 1079 L 1920 1080 L 0 1080 Z " fill="#070707"/>
<path transform="matrix(2.7777777,0,0,-2.7777777,0,3000)" d="M 0 0 L 1920 0 L 1920 1080 L 0 1080 Z " fill="#070707"/>
<clipPath id="cp0">
<path transform="matrix(2.7777777,0,0,-2.7777777,0,3000)" d="M 0 1080 L 1920 1080 L 1920 0 L 0 0 Z "/>
</clipPath>
<g clip-path="url(#cp0)">
<path transform="matrix(2.7777777,0,0,-2.7777777,1543.1896,1917.1742)" d="M 0 0 C 0 -3.457 -26.021 -6.259 -58.12 -6.259 C -90.219 -6.259 -116.24 -3.457 -116.24 0 C -116.24 3.457 -90.219 6.259 -58.12 6.259 C -26.021 6.259 0 3.457 0 0 " fill="#efefef"/>
<path transform="matrix(2.7777777,0,0,-2.7777777,1703.749,1233.3629)" d="M 0 0 L .011 0 Z M -117.491 -34.819 C -159.799 -34.819 -198.414 -61.811 -212.111 -102.51 C -229.202 -153.291 -201.927 -209.481 -151.31 -227.767 C -100.38 -246.166 -43.806 -220.276 -25.196 -170.055 C -11.64 -133.468 -17.758 -99.24 -43.382 -68.322 C -44.33 -67.177 -45.618 -65.366 -45.854 -62.861 C -46.046 -60.829 -45.551 -58.835 -44.383 -56.938 C -43.248 -55.089 -36.549 -42.093 -32.95 -35.111 L -13.182 2.192 L -6.743 -1.3 C -6.243 -1.571 -5.767 -1.83 -5.314 -2.075 C -4.668 -.825 -3.999 .444 -3.307 1.72 C -11.417 5.941 -19.569 10.253 -27.484 14.439 C -30.54 16.055 -33.596 17.671 -36.652 19.284 L -45.533 23.963 C -53.551 28.185 -61.809 32.533 -69.967 36.902 C -70.324 36.228 -70.685 35.564 -71.04 34.91 C -71.358 34.326 -71.676 33.741 -71.988 33.154 C -71.103 32.698 -69.804 31.972 -69.521 31.814 L -64.617 29.064 L -67.043 23.992 C -67.068 23.939 -67.674 22.676 -68.429 21.264 C -76.513 6.142 -85.243 -10.387 -95.905 -30.754 C -97.247 -33.316 -99.94 -36.234 -105.188 -35.582 C -109.307 -35.07 -113.42 -34.819 -117.491 -34.819 M -117.765 -245.666 C -130.464 -245.666 -143.164 -243.469 -155.387 -239.053 C -183.034 -229.065 -205.311 -209.036 -218.113 -182.653 C -230.919 -156.264 -232.827 -126.441 -223.484 -98.682 C -215.293 -74.344 -198.815 -53.446 -177.086 -39.839 C -155.902 -26.574 -130.602 -20.785 -105.627 -23.452 C -96.014 -5.095 -87.973 10.133 -80.533 24.072 C -82.519 25.239 -84.102 26.632 -84.866 28.979 C -85.97 32.372 -84.552 35.06 -82.756 38.463 C -82.37 39.193 -81.977 39.917 -81.584 40.641 C -80.708 42.251 -79.881 43.773 -79.179 45.298 C -78.757 46.217 -77.47 49.016 -74.304 50.076 C -71.114 51.143 -68.362 49.663 -67.457 49.175 C -58.323 44.259 -48.979 39.339 -39.942 34.582 L -31.053 29.897 C -27.992 28.282 -24.933 26.665 -21.874 25.046 C -12.941 20.322 -3.705 15.437 5.408 10.716 C 6.307 10.251 9.042 8.834 9.979 5.641 C 10.911 2.465 9.377 -.203 8.873 -1.079 C 6.951 -4.422 5.183 -7.869 3.558 -11.094 C 3.099 -12.006 1.877 -14.432 -1.02 -15.405 C -2.474 -15.894 -4.786 -16.149 -7.511 -14.574 C -7.735 -14.444 -7.985 -14.302 -8.26 -14.148 L -22.315 -40.67 C -28.591 -52.844 -31.758 -58.92 -33.29 -61.702 C -5.452 -95.887 1.058 -133.737 -13.944 -174.225 C -24.041 -201.473 -44.411 -223.23 -71.303 -235.489 C -86.156 -242.26 -101.959 -245.665 -117.765 -245.666 " fill="#efefef"/>
<path transform="matrix(2.7777777,0,0,-2.7777777,1151.1732,1547.1135)" d="M 0 0 C 21.576 29.248 47.879 49.953 86.598 47.06 C 47.372 54.52 21.652 32.858 -2.226 6.166 C -.478 12.036 2.719 20.464 8.803 29.265 C 25.682 53.68 51.247 61.394 59.41 63.461 C 89.498 71.079 125.426 63.31 144.433 41.224 C 145.742 39.704 146.746 38.376 147.41 37.461 C 145.388 33.29 141.954 27.264 136.332 21.13 C 131.183 15.513 126.133 10.023 117.93 7.482 C 111.013 5.341 103.309 5.771 94.245 8.58 C 87.376 10.708 80.573 13.053 73.692 15.143 C 50.43 22.212 28.747 18.497 8.471 5.422 C 5.654 3.606 2.824 1.807 0 0 " fill="#7cac54"/>
<path transform="matrix(2.7777777,0,0,-2.7777777,1478.5658,1820.3341)" d="M 0 0 C -2.638 -.613 -16.72 -4.803 -32.036 2.38 C -46.893 9.348 -56.743 21.817 -66.071 35.167 C -59.818 32.121 -51.846 28.934 -42.322 26.666 C -27.705 23.186 -14.979 23.194 -5.938 23.949 C -29.13 28.742 -52.807 31.886 -73.177 45.92 C -68.302 49.886 -59.333 56.124 -46.579 59.375 C -40.838 60.838 -24.759 64.936 -8.548 58.283 C 10.781 50.351 15.583 33.173 31.389 33.725 C 35.376 33.865 38.545 35.079 40.365 35.917 C 39.012 32.692 27.467 6.386 0 0 " fill="#d9f9aa"/>
<path transform="matrix(2.7777777,0,0,-2.7777777,1143.8278,1693.8547)" d="M 0 0 C -8.209 13.786 -6.119 31.373 4.43 42.584 C 14.552 53.339 27.326 59.407 41.72 60.982 C 63.741 63.391 84.008 56.32 104.029 47.261 C 97.651 37.865 90.551 32.295 86.054 29.288 C 82.047 26.608 64.2 15.324 43.054 18.288 C 39.026 18.852 29.841 20.64 20.054 23.288 C 11.955 25.479 5.3 27.756 1.054 24.288 C -.639 22.905 -1.286 21.15 -1.946 19.288 C -4.821 11.177 -1.541 3.192 0 0 " fill="#346469"/>
<path transform="matrix(2.7777777,0,0,-2.7777777,1421.7557,1848.6111)" d="M 0 0 C -5.088 -1.18 -12.426 -2.358 -21.261 -1.989 C -22.575 -1.934 -30.3 -1.701 -38.987 .786 C -59.938 6.785 -77.841 17.286 -89.159 36.762 C -94.411 45.8 -96.644 55.656 -96.722 66.106 C -96.733 67.58 -96.698 70.004 -95.088 71.404 C -91.652 74.395 -83.771 70.404 -81 69 C -71.992 64.438 -66.721 57.912 -66 57 C -46.471 32.304 -42.058 23.061 -33 15 C -26.761 9.447 -16.643 2.965 0 0 " fill="#84a44c"/>
<path transform="matrix(2.7777777,0,0,-2.7777777,2018.6932,1217.3689)" d="M 0 0 C 2.208 0 3.314 -1.577 3.314 -4.723 L 3.314 -100.236 C 3.314 -105.96 3.639 -110.719 4.293 -114.509 C 4.945 -118.302 6.025 -121.307 7.531 -123.523 C 9.037 -125.745 11.07 -127.316 13.631 -128.246 C 16.192 -129.178 19.43 -129.641 23.345 -129.641 L 65.066 -129.641 C 68.982 -129.641 72.22 -129.178 74.781 -128.246 C 77.341 -127.316 79.374 -125.745 80.881 -123.523 C 82.387 -121.307 83.441 -118.302 84.044 -114.509 C 84.646 -110.719 84.947 -105.96 84.947 -100.236 L 84.947 -4.723 C 84.947 -1.577 86.051 0 88.261 0 L 104.678 0 C 106.886 0 107.991 -1.577 107.991 -4.723 L 107.991 -93.583 C 107.991 -103.886 107.238 -112.652 105.732 -119.876 C 104.226 -127.105 101.79 -132.969 98.427 -137.477 C 95.061 -141.985 90.694 -145.241 85.324 -147.244 C 79.95 -149.248 73.449 -150.247 65.819 -150.247 L 22.442 -150.247 C 14.81 -150.247 8.334 -149.248 3.012 -147.244 C -2.311 -145.241 -6.653 -141.985 -10.016 -137.477 C -13.381 -132.969 -15.84 -127.105 -17.396 -119.876 C -18.954 -112.652 -19.73 -103.886 -19.73 -93.583 L -19.73 -4.723 C -19.73 -1.577 -18.578 0 -16.267 0 Z " fill="#346469"/>
<path transform="matrix(2.7777777,0,0,-2.7777777,2437.4835,1449.2612)" d="M 0 0 L 57.685 0 C 62.806 0 66.421 2.083 68.53 6.25 C 70.638 10.414 71.693 16.76 71.693 25.282 L 71.693 36.077 C 71.693 44.599 70.638 50.942 68.53 55.109 C 66.421 59.272 62.806 61.359 57.685 61.359 L 1.958 61.359 C .651 61.359 0 60.223 0 57.949 Z M 62.355 83.481 C 73.9 83.481 82.184 79.758 87.206 72.319 C 92.226 64.878 94.737 53.861 94.737 39.265 L 94.737 23.382 C 94.737 8.786 92.226 -2.234 87.206 -9.672 C 82.184 -17.115 73.9 -20.833 62.355 -20.833 L 0 -20.833 L 0 -62.044 C 0 -65.194 -1.106 -66.766 -3.313 -66.766 L -19.58 -66.766 C -21.891 -66.766 -23.044 -65.194 -23.044 -62.044 L -23.044 77.042 C -23.044 81.335 -21.538 83.481 -18.526 83.481 Z " fill="#7cac54"/>
<path transform="matrix(2.7777777,0,0,-2.7777777,2952.0843,1307.4016)" d="M 0 0 C 1.808 0 2.711 -1.287 2.711 -3.863 L 2.711 -21.892 C 2.711 -24.468 1.808 -25.755 0 -25.755 L -40.063 -25.755 C -43.278 -25.755 -45.937 -26.151 -48.046 -26.936 C -50.155 -27.725 -51.838 -29.012 -53.091 -30.8 C -54.348 -32.59 -55.226 -35.022 -55.728 -38.098 C -56.231 -41.176 -56.48 -44.933 -56.48 -49.366 L -56.48 -113.114 C -56.48 -116.264 -57.586 -117.835 -59.794 -117.835 L -74.554 -117.835 C -76.865 -117.835 -78.019 -116.264 -78.019 -113.114 L -78.019 -43.571 C -78.019 -35.844 -77.416 -29.227 -76.211 -23.717 C -75.007 -18.21 -73.024 -13.702 -70.262 -10.194 C -67.501 -6.69 -63.837 -4.114 -59.267 -2.468 C -54.699 -.825 -49.001 0 -42.172 0 Z " fill="#f2f2f2"/>
<path transform="matrix(2.7777777,0,0,-2.7777777,3049.144,1499.3812)" d="M 0 0 C 0 -4.581 .25 -8.371 .753 -11.376 C 1.255 -14.382 2.132 -16.779 3.389 -18.566 C 4.643 -20.358 6.326 -21.644 8.435 -22.429 C 10.543 -23.219 13.203 -23.61 16.417 -23.61 L 54.824 -23.61 C 58.138 -23.61 60.849 -23.219 62.957 -22.429 C 65.066 -21.644 66.746 -20.358 68.003 -18.566 C 69.257 -16.779 70.135 -14.382 70.638 -11.376 C 71.139 -8.371 71.392 -4.581 71.392 0 L 71.392 20.391 C 71.392 24.824 71.139 28.547 70.638 31.551 C 70.135 34.557 69.257 36.988 68.003 38.85 C 66.746 40.707 65.066 41.996 62.957 42.713 C 60.849 43.428 58.138 43.786 54.824 43.786 L 16.417 43.786 C 13.203 43.786 10.543 43.428 8.435 42.713 C 6.326 41.996 4.643 40.707 3.389 38.85 C 2.132 36.988 1.255 34.557 .753 31.551 C .25 28.547 0 24.824 0 20.391 Z M 56.933 69.113 C 63.658 69.113 69.333 68.288 73.952 66.645 C 78.569 64.999 82.259 62.422 85.022 58.919 C 87.782 55.411 89.766 50.903 90.972 45.396 C 92.176 39.886 92.779 33.269 92.779 25.541 L 92.779 -5.366 C 92.779 -13.092 92.176 -19.713 90.972 -25.22 C 89.766 -30.73 87.782 -35.238 85.022 -38.742 C 82.259 -42.251 78.569 -44.789 73.952 -46.363 C 69.333 -47.938 63.658 -48.723 56.933 -48.723 L 14.309 -48.723 C 7.479 -48.723 1.782 -47.938 -2.786 -46.363 C -7.356 -44.789 -11.02 -42.251 -13.781 -38.742 C -16.544 -35.238 -18.526 -30.73 -19.73 -25.22 C -20.935 -19.713 -21.538 -13.092 -21.538 -5.366 L -21.538 25.541 C -21.538 33.269 -20.935 39.886 -19.73 45.396 C -18.526 50.903 -16.544 55.411 -13.781 58.919 C -11.02 62.422 -7.356 64.999 -2.786 66.645 C 1.782 68.288 7.479 69.113 14.309 69.113 Z " fill="#f2f2f2"/>
<path transform="matrix(2.7777777,0,0,-2.7777777,3431.955,1217.3689)" d="M 0 0 C 2.41 0 4.417 -.145 6.025 -.43 C 7.629 -.718 9.037 -1.326 10.242 -2.255 C 11.446 -3.187 12.6 -4.474 13.707 -6.118 C 14.809 -7.765 16.064 -9.948 17.471 -12.664 L 73.5 -117.408 C 73.9 -118.41 74.554 -118.91 75.459 -118.91 L 76.814 -118.91 C 77.616 -118.91 78.019 -118.196 78.019 -116.763 L 78.019 -4.723 C 78.019 -1.577 79.122 0 81.333 0 L 97.147 0 C 99.355 0 100.46 -1.577 100.46 -4.723 L 100.46 -127.925 C 100.46 -136.655 99.355 -142.557 97.147 -145.633 C 94.937 -148.712 91.522 -150.247 86.905 -150.247 L 73.953 -150.247 C 71.642 -150.247 69.708 -150.107 68.153 -149.819 C 66.595 -149.534 65.217 -148.96 64.012 -148.101 C 62.806 -147.244 61.625 -145.992 60.472 -144.345 C 59.317 -142.702 57.987 -140.448 56.481 -137.583 L .302 -32.84 C -.302 -31.841 -.956 -31.337 -1.657 -31.337 L -3.012 -31.337 C -3.817 -31.337 -4.217 -32.056 -4.217 -33.484 L -4.217 -145.526 C -4.217 -148.675 -5.323 -150.247 -7.531 -150.247 L -23.345 -150.247 C -25.656 -150.247 -26.809 -148.675 -26.809 -145.526 L -26.809 -22.323 C -26.809 -13.596 -25.705 -7.694 -23.496 -4.615 C -21.288 -1.54 -17.874 0 -13.254 0 Z " fill="#7cac54"/>
<path transform="matrix(2.7777777,0,0,-2.7777777,3978.77,1569.1394)" d="M 0 0 C 1.605 0 2.735 .537 3.389 1.609 C 4.041 2.684 4.368 4.578 4.368 7.298 L 4.368 26.186 L -50.757 26.186 C -53.871 26.186 -56.055 25.29 -57.309 23.504 C -58.565 21.712 -59.192 19.102 -59.192 15.669 L -59.192 11.161 C -59.192 7.298 -58.565 4.47 -57.309 2.684 C -56.055 .892 -53.871 0 -50.757 0 Z M -9.94 94.226 C -3.215 94.226 2.459 93.401 7.079 91.758 C 11.696 90.111 15.386 87.535 18.15 84.032 C 20.91 80.524 22.894 76.016 24.098 70.508 C 25.303 64.999 25.906 58.382 25.906 50.654 L 25.906 -6.439 C 25.906 -9.874 25.73 -12.701 25.379 -14.918 C 25.026 -17.138 24.424 -18.888 23.571 -20.176 C 22.718 -21.463 21.587 -22.359 20.183 -22.859 C 18.775 -23.362 16.968 -23.61 14.76 -23.61 L -56.932 -23.61 C -61.352 -23.61 -65.042 -23.004 -68.002 -21.786 C -70.965 -20.572 -73.349 -18.747 -75.156 -16.313 C -76.964 -13.882 -78.244 -10.732 -78.997 -6.868 C -79.75 -3.005 -80.127 1.573 -80.127 6.868 L -80.127 17.17 C -80.127 21.605 -79.75 25.575 -78.997 29.083 C -78.244 32.588 -76.964 35.557 -75.156 37.99 C -73.349 40.422 -70.965 42.247 -68.002 43.464 C -65.042 44.678 -61.352 45.289 -56.932 45.289 L 4.368 45.289 L 4.368 49.367 C 4.368 52.801 4.116 55.732 3.615 58.167 C 3.112 60.598 2.259 62.567 1.055 64.069 C -.15 65.572 -1.807 66.679 -3.916 67.396 C -6.024 68.111 -8.736 68.471 -12.049 68.471 L -75.006 68.471 C -76.813 68.471 -77.717 69.757 -77.717 72.334 L -77.717 90.362 C -77.717 92.939 -76.813 94.226 -75.006 94.226 Z " fill="#f2f2f2"/>
<path transform="matrix(2.7777777,0,0,-2.7777777,4123.5236,1307.4016)" d="M 0 0 L 0 28.334 C 0 31.48 1.103 33.055 3.314 33.055 L 18.224 33.055 C 20.431 33.055 21.537 31.48 21.537 28.334 L 21.537 0 L 47.895 0 C 49.703 0 50.606 -1.287 50.606 -3.863 L 50.606 -21.463 C 50.606 -24.038 49.703 -25.327 47.895 -25.327 L 21.537 -25.327 L 21.537 -75.124 C 21.537 -81.133 22.39 -85.532 24.097 -88.323 C 25.804 -91.113 29.167 -92.509 34.19 -92.509 L 48.8 -92.509 C 50.606 -92.509 51.511 -93.797 51.511 -96.372 L 51.511 -113.972 C 51.511 -116.549 50.606 -117.835 48.8 -117.835 L 30.575 -117.835 C 24.55 -117.835 19.581 -117.051 15.663 -115.475 C 11.748 -113.902 8.609 -111.396 6.25 -107.963 C 3.89 -104.528 2.258 -100.094 1.355 -94.654 C .452 -89.219 0 -82.71 0 -75.124 L 0 -25.327 L -14.309 -25.327 C -16.116 -25.327 -17.021 -24.038 -17.021 -21.463 L -17.021 -3.863 C -17.021 -1.287 -16.116 0 -14.309 0 Z " fill="#f2f2f2"/>
<path transform="matrix(2.7777777,0,0,-2.7777777,2051.7034,1772.3496)" d="M 0 0 C 0 -2.668 -.551 -5.018 -1.653 -7.047 C -2.755 -9.077 -4.36 -10.663 -6.467 -11.804 C -8.575 -12.943 -11.098 -13.515 -14.036 -13.515 C -18.483 -13.515 -21.915 -12.287 -24.331 -9.831 C -26.748 -7.376 -27.956 -4.1 -27.956 0 L -27.956 27.144 L -22.446 27.144 L -22.446 .405 C -22.446 -2.688 -21.75 -5.008 -20.358 -6.555 C -18.966 -8.102 -16.859 -8.874 -14.036 -8.874 C -11.175 -8.874 -9.048 -8.111 -7.656 -6.583 C -6.264 -5.057 -5.568 -2.727 -5.568 .405 L -5.568 27.144 L 0 27.144 Z " fill="#ffffff"/>
<path transform="matrix(2.7777777,0,0,-2.7777777,2141.1986,1728.0463)" d="M 0 0 C 1.566 -1.662 2.349 -3.943 2.349 -6.844 L 2.349 -28.768 L -2.987 -28.768 L -2.987 -7.598 C -2.987 -5.433 -3.393 -3.905 -4.205 -3.016 C -5.017 -2.127 -6.216 -1.682 -7.801 -1.682 C -9.425 -1.682 -10.856 -2.146 -12.093 -3.073 C -13.331 -4.002 -14.491 -5.336 -15.573 -7.075 L -15.573 -28.768 L -20.909 -28.768 L -20.909 1.799 L -16.327 1.799 L -15.863 -2.726 C -14.781 -1.102 -13.437 .175 -11.832 1.103 C -10.228 2.03 -8.459 2.494 -6.525 2.494 C -3.741 2.494 -1.566 1.662 0 0 " fill="#ffffff"/>
<path transform="matrix(2.7777777,0,0,-2.7777777,0,3000)" d="M 789.827 429.136 L 784.491 429.136 L 784.491 459.702 L 789.827 459.702 Z M 789.827 473.332 C 790.522 472.636 790.871 471.766 790.871 470.722 C 790.871 469.678 790.522 468.816 789.827 468.141 C 789.13 467.464 788.222 467.126 787.101 467.126 C 786.018 467.126 785.128 467.464 784.433 468.141 C 783.736 468.816 783.389 469.678 783.389 470.722 C 783.389 471.766 783.736 472.636 784.433 473.332 C 785.128 474.027 786.018 474.376 787.101 474.376 C 788.222 474.376 789.13 474.027 789.827 473.332 " fill="#ffffff"/>
<path transform="matrix(2.7777777,0,0,-2.7777777,2267.7518,1794.9869)" d="M 0 0 C 1.16 .754 2.281 1.885 3.364 3.393 L 3.364 18.357 C 2.358 19.671 1.285 20.667 .145 21.344 C -.996 22.021 -2.282 22.359 -3.712 22.359 C -6.071 22.359 -7.898 21.373 -9.193 19.401 C -10.489 17.429 -11.136 14.49 -11.136 10.585 C -11.136 6.641 -10.537 3.702 -9.338 1.77 C -8.14 -.165 -6.419 -1.131 -4.176 -1.131 C -2.552 -1.131 -1.16 -.754 0 0 M 8.7 38.193 L 8.7 -4.669 L 4.002 -4.669 L 3.48 -.435 C 2.474 -1.981 1.218 -3.19 -.29 -4.06 C -1.798 -4.93 -3.48 -5.365 -5.336 -5.365 C -8.971 -5.365 -11.803 -3.935 -13.833 -1.073 C -15.863 1.788 -16.878 5.635 -16.878 10.469 C -16.878 13.601 -16.395 16.385 -15.428 18.821 C -14.462 21.257 -13.07 23.161 -11.252 24.534 C -9.435 25.906 -7.308 26.593 -4.872 26.593 C -1.74 26.593 1.005 25.336 3.364 22.823 L 3.364 38.831 Z " fill="#ffffff"/>
<path transform="matrix(2.7777777,0,0,-2.7777777,2366.5118,1785.5631)" d="M 0 0 L 0 7.019 L -4.002 7.019 C -9.648 7.019 -12.47 4.931 -12.47 .755 C -12.47 -1.063 -12.026 -2.436 -11.136 -3.363 C -10.247 -4.292 -8.932 -4.756 -7.192 -4.756 C -4.138 -4.756 -1.74 -3.171 0 0 M 5.974 -3.683 C 6.399 -4.282 7.037 -4.736 7.888 -5.046 L 6.67 -8.758 C 5.084 -8.563 3.808 -8.119 2.842 -7.424 C 1.875 -6.728 1.16 -5.646 .696 -4.176 C -1.354 -7.23 -4.389 -8.758 -8.41 -8.758 C -11.426 -8.758 -13.804 -7.907 -15.544 -6.205 C -17.284 -4.505 -18.154 -2.281 -18.154 .465 C -18.154 3.713 -16.985 6.206 -14.645 7.946 C -12.306 9.687 -8.99 10.557 -4.698 10.557 L 0 10.557 L 0 12.818 C 0 14.983 -.522 16.53 -1.566 17.458 C -2.61 18.387 -4.215 18.851 -6.38 18.851 C -8.623 18.851 -11.368 18.309 -14.616 17.227 L -15.95 21.112 C -12.161 22.505 -8.642 23.2 -5.394 23.2 C -1.798 23.2 .889 22.32 2.668 20.562 C 4.446 18.802 5.336 16.299 5.336 13.051 L 5.336 -.928 C 5.336 -2.165 5.548 -3.083 5.974 -3.683 " fill="#ffffff"/>
<path transform="matrix(2.7777777,0,0,-2.7777777,2454.96,1794.9869)" d="M 0 0 C 1.16 .754 2.281 1.885 3.364 3.393 L 3.364 18.357 C 2.358 19.671 1.285 20.667 .145 21.344 C -.996 22.021 -2.282 22.359 -3.712 22.359 C -6.071 22.359 -7.898 21.373 -9.193 19.401 C -10.489 17.429 -11.136 14.49 -11.136 10.585 C -11.136 6.641 -10.537 3.702 -9.338 1.77 C -8.14 -.165 -6.419 -1.131 -4.176 -1.131 C -2.552 -1.131 -1.16 -.754 0 0 M 8.7 38.193 L 8.7 -4.669 L 4.002 -4.669 L 3.48 -.435 C 2.474 -1.981 1.218 -3.19 -.29 -4.06 C -1.798 -4.93 -3.48 -5.365 -5.336 -5.365 C -8.971 -5.365 -11.803 -3.935 -13.833 -1.073 C -15.863 1.788 -16.878 5.635 -16.878 10.469 C -16.878 13.601 -16.395 16.385 -15.428 18.821 C -14.462 21.257 -13.07 23.161 -11.252 24.534 C -9.435 25.906 -7.308 26.593 -4.872 26.593 C -1.74 26.593 1.005 25.336 3.364 22.823 L 3.364 38.831 Z " fill="#ffffff"/>
<path transform="matrix(2.7777777,0,0,-2.7777777,2597.2196,1794.9869)" d="M 0 0 C 1.16 .754 2.281 1.885 3.364 3.393 L 3.364 18.357 C 2.358 19.671 1.285 20.667 .145 21.344 C -.996 22.021 -2.282 22.359 -3.712 22.359 C -6.071 22.359 -7.898 21.373 -9.193 19.401 C -10.489 17.429 -11.136 14.49 -11.136 10.585 C -11.136 6.641 -10.537 3.702 -9.338 1.77 C -8.14 -.165 -6.419 -1.131 -4.176 -1.131 C -2.552 -1.131 -1.16 -.754 0 0 M 8.7 38.193 L 8.7 -4.669 L 4.002 -4.669 L 3.48 -.435 C 2.474 -1.981 1.218 -3.19 -.29 -4.06 C -1.798 -4.93 -3.48 -5.365 -5.336 -5.365 C -8.971 -5.365 -11.803 -3.935 -13.833 -1.073 C -15.863 1.788 -16.878 5.635 -16.878 10.469 C -16.878 13.601 -16.395 16.385 -15.428 18.821 C -14.462 21.257 -13.07 23.161 -11.252 24.534 C -9.435 25.906 -7.308 26.593 -4.872 26.593 C -1.74 26.593 1.005 25.336 3.364 22.823 L 3.364 38.831 Z " fill="#ffffff"/>
<path transform="matrix(2.7777777,0,0,-2.7777777,2703.0679,1758.6561)" d="M 0 0 C 0 3.016 -.6 5.316 -1.798 6.902 C -2.997 8.487 -4.795 9.28 -7.192 9.28 C -11.562 9.28 -13.94 6.07 -14.326 -.348 L 0 -.348 Z M 5.162 -4.292 L -14.326 -4.292 C -14.094 -7.656 -13.244 -10.131 -11.774 -11.716 C -10.305 -13.302 -8.41 -14.094 -6.09 -14.094 C -4.621 -14.094 -3.268 -13.882 -2.03 -13.456 C -.793 -13.031 .502 -12.354 1.856 -11.426 L 4.176 -14.616 C .928 -17.168 -2.63 -18.444 -6.496 -18.444 C -10.75 -18.444 -14.065 -17.052 -16.443 -14.268 C -18.821 -11.484 -20.01 -7.656 -20.01 -2.784 C -20.01 .386 -19.498 3.199 -18.473 5.655 C -17.449 8.11 -15.979 10.034 -14.065 11.426 C -12.151 12.818 -9.899 13.514 -7.308 13.514 C -3.248 13.514 -.136 12.18 2.03 9.512 C 4.195 6.844 5.278 3.151 5.278 -1.566 C 5.278 -2.456 5.239 -3.364 5.162 -4.292 " fill="#ffffff"/>
<path transform="matrix(2.7777777,0,0,-2.7777777,2837.193,1749.9566)" d="M 0 0 C 1.682 1.237 2.523 3.46 2.523 6.67 C 2.523 9.531 1.682 11.601 0 12.876 C -1.682 14.152 -4.089 14.79 -7.221 14.79 L -12.151 14.79 L -12.151 -1.855 L -7.337 -1.855 C -4.128 -1.855 -1.682 -1.238 0 0 M 4.321 15.979 C 7.027 13.91 8.381 10.826 8.381 6.729 C 8.381 2.358 6.969 -.89 4.147 -3.016 C 1.324 -5.143 -2.427 -6.206 -7.105 -6.206 L -12.151 -6.206 L -12.151 -20.88 L -17.661 -20.88 L -17.661 19.082 L -7.163 19.082 C -2.214 19.082 1.614 18.047 4.321 15.979 " fill="#ffffff"/>
<path transform="matrix(2.7777777,0,0,-2.7777777,2924.5972,1722.0839)" d="M 0 0 L -.986 -5.22 C -1.914 -4.988 -2.804 -4.872 -3.654 -4.872 C -5.549 -4.872 -7.076 -5.568 -8.236 -6.96 C -9.396 -8.353 -10.305 -10.518 -10.962 -13.456 L -10.962 -30.914 L -16.298 -30.914 L -16.298 -.348 L -11.716 -.348 L -11.194 -6.554 C -10.382 -4.273 -9.28 -2.552 -7.888 -1.392 C -6.496 -.232 -4.872 .348 -3.016 .348 C -1.934 .348 -.928 .232 0 0 " fill="#ffffff"/>
<path transform="matrix(2.7777777,0,0,-2.7777777,2948.116,1765.5845)" d="M 0 0 C 0 -7.771 2.629 -11.658 7.888 -11.658 C 13.146 -11.658 15.776 -7.753 15.776 .058 C 15.776 7.83 13.166 11.716 7.946 11.716 C 2.648 11.716 0 7.811 0 0 M 17.951 11.716 C 20.329 8.854 21.518 4.968 21.518 .058 C 21.518 -3.113 20.976 -5.907 19.894 -8.323 C 18.811 -10.74 17.245 -12.615 15.196 -13.949 C 13.146 -15.283 10.71 -15.95 7.888 -15.95 C 3.596 -15.95 .251 -14.52 -2.146 -11.658 C -4.544 -8.797 -5.742 -4.911 -5.742 0 C -5.742 3.17 -5.201 5.964 -4.118 8.381 C -3.036 10.797 -1.47 12.673 .58 14.007 C 2.629 15.341 5.084 16.008 7.946 16.008 C 12.238 16.008 15.573 14.577 17.951 11.716 " fill="#ffffff"/>
<path transform="matrix(2.7777777,0,0,-2.7777777,3075.556,1794.9869)" d="M 0 0 C 1.16 .754 2.281 1.885 3.364 3.393 L 3.364 18.357 C 2.358 19.671 1.285 20.667 .145 21.344 C -.996 22.021 -2.282 22.359 -3.712 22.359 C -6.071 22.359 -7.898 21.373 -9.193 19.401 C -10.489 17.429 -11.136 14.49 -11.136 10.585 C -11.136 6.641 -10.537 3.702 -9.338 1.77 C -8.14 -.165 -6.419 -1.131 -4.176 -1.131 C -2.552 -1.131 -1.16 -.754 0 0 M 8.7 38.193 L 8.7 -4.669 L 4.002 -4.669 L 3.48 -.435 C 2.474 -1.981 1.218 -3.19 -.29 -4.06 C -1.798 -4.93 -3.48 -5.365 -5.336 -5.365 C -8.971 -5.365 -11.803 -3.935 -13.833 -1.073 C -15.863 1.788 -16.878 5.635 -16.878 10.469 C -16.878 13.601 -16.395 16.385 -15.428 18.821 C -14.462 21.257 -13.07 23.161 -11.252 24.534 C -9.435 25.906 -7.308 26.593 -4.872 26.593 C -1.74 26.593 1.005 25.336 3.364 22.823 L 3.364 38.831 Z " fill="#ffffff"/>
<path transform="matrix(2.7777777,0,0,-2.7777777,3195.0994,1807.9562)" d="M 0 0 L -4.582 0 L -4.988 4.756 C -6.148 2.861 -7.482 1.479 -8.99 .609 C -10.498 -.261 -12.335 -.696 -14.5 -.696 C -17.168 -.696 -19.256 .116 -20.764 1.74 C -22.272 3.364 -23.026 5.664 -23.026 8.642 L -23.026 30.566 L -17.69 30.566 L -17.69 9.222 C -17.69 7.134 -17.323 5.655 -16.588 4.785 C -15.854 3.915 -14.655 3.48 -12.992 3.48 C -10.015 3.48 -7.463 5.239 -5.336 8.758 L -5.336 30.566 L 0 30.566 Z " fill="#ffffff"/>
<path transform="matrix(2.7777777,0,0,-2.7777777,3272.1068,1723.2937)" d="M 0 0 C 1.508 -.521 2.958 -1.362 4.35 -2.522 L 1.798 -5.887 C .715 -5.113 -.339 -4.543 -1.363 -4.176 C -2.388 -3.809 -3.519 -3.625 -4.756 -3.625 C -7.231 -3.625 -9.155 -4.61 -10.527 -6.582 C -11.9 -8.555 -12.586 -11.475 -12.586 -15.341 C -12.586 -19.207 -11.91 -22.06 -10.556 -23.896 C -9.203 -25.732 -7.27 -26.65 -4.756 -26.65 C -3.558 -26.65 -2.456 -26.468 -1.45 -26.1 C -.445 -25.732 .676 -25.143 1.914 -24.33 L 4.35 -27.811 C 1.566 -30.054 -1.547 -31.175 -4.988 -31.175 C -9.125 -31.175 -12.383 -29.782 -14.761 -26.998 C -17.139 -24.215 -18.328 -20.367 -18.328 -15.456 C -18.328 -12.209 -17.787 -9.366 -16.704 -6.931 C -15.622 -4.494 -14.085 -2.601 -12.093 -1.246 C -10.102 .106 -7.734 .783 -4.988 .783 C -3.171 .783 -1.508 .522 0 0 " fill="#ffffff"/>
<path transform="matrix(2.7777777,0,0,-2.7777777,3348.7955,1804.0907)" d="M 0 0 C -2.011 -1.392 -4.292 -2.088 -6.844 -2.088 C -9.435 -2.088 -11.455 -1.344 -12.905 .146 C -14.355 1.634 -15.08 3.789 -15.08 6.612 L -15.08 25.057 L -20.416 25.057 L -20.416 29.175 L -15.08 29.175 L -15.08 36.076 L -9.744 36.715 L -9.744 29.175 L -2.494 29.175 L -3.074 25.057 L -9.744 25.057 L -9.744 6.845 C -9.744 5.259 -9.464 4.108 -8.903 3.394 C -8.343 2.678 -7.405 2.32 -6.09 2.32 C -4.892 2.32 -3.538 2.727 -2.03 3.538 Z " fill="#ffffff"/>
<path transform="matrix(2.7777777,0,0,-2.7777777,3373.1214,1765.5845)" d="M 0 0 C 0 -7.771 2.629 -11.658 7.888 -11.658 C 13.146 -11.658 15.776 -7.753 15.776 .058 C 15.776 7.83 13.166 11.716 7.946 11.716 C 2.648 11.716 0 7.811 0 0 M 17.951 11.716 C 20.329 8.854 21.518 4.968 21.518 .058 C 21.518 -3.113 20.976 -5.907 19.894 -8.323 C 18.811 -10.74 17.245 -12.615 15.196 -13.949 C 13.146 -15.283 10.71 -15.95 7.888 -15.95 C 3.596 -15.95 .251 -14.52 -2.146 -11.658 C -4.544 -8.797 -5.742 -4.911 -5.742 0 C -5.742 3.17 -5.201 5.964 -4.118 8.381 C -3.036 10.797 -1.47 12.673 .58 14.007 C 2.629 15.341 5.084 16.008 7.946 16.008 C 12.238 16.008 15.573 14.577 17.951 11.716 " fill="#ffffff"/>
<path transform="matrix(2.7777777,0,0,-2.7777777,3497.6617,1723.535)" d="M 0 0 C 1.662 -.58 3.248 -1.449 4.756 -2.609 L 2.494 -5.974 C 1.102 -5.085 -.223 -4.428 -1.479 -4.002 C -2.736 -3.576 -4.06 -3.363 -5.452 -3.363 C -7.192 -3.363 -8.565 -3.722 -9.57 -4.437 C -10.576 -5.152 -11.078 -6.129 -11.078 -7.365 C -11.078 -8.604 -10.605 -9.569 -9.657 -10.266 C -8.71 -10.962 -6.999 -11.639 -4.524 -12.296 C -1.122 -13.146 1.421 -14.307 3.103 -15.775 C 4.785 -17.245 5.626 -19.256 5.626 -21.808 C 5.626 -24.823 4.456 -27.125 2.117 -28.71 C -.223 -30.296 -3.074 -31.088 -6.438 -31.088 C -11.078 -31.088 -14.926 -29.754 -17.98 -27.086 L -15.138 -23.838 C -12.548 -25.81 -9.686 -26.796 -6.554 -26.796 C -4.544 -26.796 -2.949 -26.381 -1.769 -25.549 C -.59 -24.718 0 -23.587 0 -22.155 C 0 -21.111 -.213 -20.271 -.638 -19.633 C -1.064 -18.994 -1.798 -18.435 -2.842 -17.95 C -3.886 -17.468 -5.414 -16.955 -7.424 -16.414 C -10.672 -15.563 -13.021 -14.423 -14.471 -12.991 C -15.921 -11.562 -16.646 -9.743 -16.646 -7.54 C -16.646 -5.954 -16.173 -4.515 -15.225 -3.219 C -14.278 -1.924 -12.963 -.919 -11.281 -.202 C -9.599 .513 -7.714 .87 -5.626 .87 C -3.538 .87 -1.663 .58 0 0 " fill="#ffffff"/>
<path transform="matrix(2.7777777,0,0,-2.7777777,3658.7713,1807.9562)" d="M 0 0 L -7.366 0 L -23.606 33.93 C -23.374 31.262 -23.191 28.797 -23.055 26.535 C -22.92 24.273 -22.852 21.537 -22.852 18.328 L -22.852 0 L -28.014 0 L -28.014 39.962 L -20.822 39.962 L -4.408 5.974 C -4.524 6.979 -4.679 8.738 -4.872 11.252 C -5.066 13.765 -5.162 16.066 -5.162 18.154 L -5.162 39.962 L 0 39.962 Z " fill="#ffffff"/>
<path transform="matrix(2.7777777,0,0,-2.7777777,3734.1715,1785.5631)" d="M 0 0 L 0 7.019 L -4.002 7.019 C -9.648 7.019 -12.47 4.931 -12.47 .755 C -12.47 -1.063 -12.026 -2.436 -11.136 -3.363 C -10.247 -4.292 -8.932 -4.756 -7.192 -4.756 C -4.138 -4.756 -1.74 -3.171 0 0 M 5.974 -3.683 C 6.399 -4.282 7.037 -4.736 7.888 -5.046 L 6.67 -8.758 C 5.084 -8.563 3.808 -8.119 2.842 -7.424 C 1.875 -6.728 1.16 -5.646 .696 -4.176 C -1.354 -7.23 -4.389 -8.758 -8.41 -8.758 C -11.426 -8.758 -13.804 -7.907 -15.544 -6.205 C -17.284 -4.505 -18.154 -2.281 -18.154 .465 C -18.154 3.713 -16.985 6.206 -14.645 7.946 C -12.306 9.687 -8.99 10.557 -4.698 10.557 L 0 10.557 L 0 12.818 C 0 14.983 -.522 16.53 -1.566 17.458 C -2.61 18.387 -4.215 18.851 -6.38 18.851 C -8.623 18.851 -11.368 18.309 -14.616 17.227 L -15.95 21.112 C -12.161 22.505 -8.642 23.2 -5.394 23.2 C -1.798 23.2 .889 22.32 2.668 20.562 C 4.446 18.802 5.336 16.299 5.336 13.051 L 5.336 -.928 C 5.336 -2.165 5.548 -3.083 5.974 -3.683 " fill="#ffffff"/>
<path transform="matrix(2.7777777,0,0,-2.7777777,3823.908,1804.0907)" d="M 0 0 C -2.011 -1.392 -4.292 -2.088 -6.844 -2.088 C -9.435 -2.088 -11.455 -1.344 -12.905 .146 C -14.355 1.634 -15.08 3.789 -15.08 6.612 L -15.08 25.057 L -20.416 25.057 L -20.416 29.175 L -15.08 29.175 L -15.08 36.076 L -9.744 36.715 L -9.744 29.175 L -2.494 29.175 L -3.074 25.057 L -9.744 25.057 L -9.744 6.845 C -9.744 5.259 -9.464 4.108 -8.903 3.394 C -8.343 2.678 -7.405 2.32 -6.09 2.32 C -4.892 2.32 -3.538 2.727 -2.03 3.538 Z " fill="#ffffff"/>
<path transform="matrix(2.7777777,0,0,-2.7777777,3903.9808,1807.9562)" d="M 0 0 L -4.582 0 L -4.988 4.756 C -6.148 2.861 -7.482 1.479 -8.99 .609 C -10.498 -.261 -12.335 -.696 -14.5 -.696 C -17.168 -.696 -19.256 .116 -20.764 1.74 C -22.272 3.364 -23.026 5.664 -23.026 8.642 L -23.026 30.566 L -17.69 30.566 L -17.69 9.222 C -17.69 7.134 -17.323 5.655 -16.588 4.785 C -15.854 3.915 -14.655 3.48 -12.992 3.48 C -10.015 3.48 -7.463 5.239 -5.336 8.758 L -5.336 30.566 L 0 30.566 Z " fill="#ffffff"/>
<path transform="matrix(2.7777777,0,0,-2.7777777,3981.4722,1722.0839)" d="M 0 0 L -.986 -5.22 C -1.914 -4.988 -2.804 -4.872 -3.654 -4.872 C -5.549 -4.872 -7.076 -5.568 -8.236 -6.96 C -9.396 -8.353 -10.305 -10.518 -10.962 -13.456 L -10.962 -30.914 L -16.298 -30.914 L -16.298 -.348 L -11.716 -.348 L -11.194 -6.554 C -10.382 -4.273 -9.28 -2.552 -7.888 -1.392 C -6.496 -.232 -4.872 .348 -3.016 .348 C -1.934 .348 -.928 .232 0 0 " fill="#ffffff"/>
<path transform="matrix(2.7777777,0,0,-2.7777777,4036.7335,1785.5631)" d="M 0 0 L 0 7.019 L -4.002 7.019 C -9.648 7.019 -12.47 4.931 -12.47 .755 C -12.47 -1.063 -12.026 -2.436 -11.136 -3.363 C -10.247 -4.292 -8.932 -4.756 -7.192 -4.756 C -4.138 -4.756 -1.74 -3.171 0 0 M 5.974 -3.683 C 6.399 -4.282 7.037 -4.736 7.888 -5.046 L 6.67 -8.758 C 5.084 -8.563 3.808 -8.119 2.842 -7.424 C 1.875 -6.728 1.16 -5.646 .696 -4.176 C -1.354 -7.23 -4.389 -8.758 -8.41 -8.758 C -11.426 -8.758 -13.804 -7.907 -15.544 -6.205 C -17.284 -4.505 -18.154 -2.281 -18.154 .465 C -18.154 3.713 -16.985 6.206 -14.645 7.946 C -12.306 9.687 -8.99 10.557 -4.698 10.557 L 0 10.557 L 0 12.818 C 0 14.983 -.522 16.53 -1.566 17.458 C -2.61 18.387 -4.215 18.851 -6.38 18.851 C -8.623 18.851 -11.368 18.309 -14.616 17.227 L -15.95 21.112 C -12.161 22.505 -8.642 23.2 -5.394 23.2 C -1.798 23.2 .889 22.32 2.668 20.562 C 4.446 18.802 5.336 16.299 5.336 13.051 L 5.336 -.928 C 5.336 -2.165 5.548 -3.083 5.974 -3.683 " fill="#ffffff"/>
<path transform="matrix(2.7777777,0,0,-2.7777777,4085.9522,1804.975)" d="M 0 0 C -1.141 1.179 -1.711 2.832 -1.711 4.959 L -1.711 41.789 L 3.625 42.427 L 3.625 5.075 C 3.625 4.224 3.77 3.604 4.06 3.219 C 4.35 2.832 4.843 2.639 5.539 2.639 C 6.273 2.639 6.931 2.755 7.511 2.986 L 8.903 -.726 C 7.627 -1.421 6.215 -1.77 4.669 -1.77 C 2.697 -1.77 1.14 -1.18 0 0 " fill="#ffffff"/>
<path transform="matrix(2.7777777,0,0,-2.7777777,4179.4787,1758.6561)" d="M 0 0 C 0 3.016 -.6 5.316 -1.798 6.902 C -2.997 8.487 -4.795 9.28 -7.192 9.28 C -11.562 9.28 -13.94 6.07 -14.326 -.348 L 0 -.348 Z M 5.162 -4.292 L -14.326 -4.292 C -14.094 -7.656 -13.244 -10.131 -11.774 -11.716 C -10.305 -13.302 -8.41 -14.094 -6.09 -14.094 C -4.621 -14.094 -3.268 -13.882 -2.03 -13.456 C -.793 -13.031 .502 -12.354 1.856 -11.426 L 4.176 -14.616 C .928 -17.168 -2.63 -18.444 -6.496 -18.444 C -10.75 -18.444 -14.065 -17.052 -16.443 -14.268 C -18.821 -11.484 -20.01 -7.656 -20.01 -2.784 C -20.01 .386 -19.498 3.199 -18.473 5.655 C -17.449 8.11 -15.979 10.034 -14.065 11.426 C -12.151 12.818 -9.899 13.514 -7.308 13.514 C -3.248 13.514 -.136 12.18 2.03 9.512 C 4.195 6.844 5.278 3.151 5.278 -1.566 C 5.278 -2.456 5.239 -3.364 5.162 -4.292 " fill="#ffffff"/>
<path transform="matrix(2.7777777,0,0,-2.7777777,4258.101,1723.535)" d="M 0 0 C 1.662 -.58 3.248 -1.449 4.756 -2.609 L 2.494 -5.974 C 1.102 -5.085 -.223 -4.428 -1.479 -4.002 C -2.736 -3.576 -4.06 -3.363 -5.452 -3.363 C -7.192 -3.363 -8.565 -3.722 -9.57 -4.437 C -10.576 -5.152 -11.078 -6.129 -11.078 -7.365 C -11.078 -8.604 -10.605 -9.569 -9.657 -10.266 C -8.71 -10.962 -6.999 -11.639 -4.524 -12.296 C -1.122 -13.146 1.421 -14.307 3.103 -15.775 C 4.785 -17.245 5.626 -19.256 5.626 -21.808 C 5.626 -24.823 4.456 -27.125 2.117 -28.71 C -.223 -30.296 -3.074 -31.088 -6.438 -31.088 C -11.078 -31.088 -14.926 -29.754 -17.98 -27.086 L -15.138 -23.838 C -12.548 -25.81 -9.686 -26.796 -6.554 -26.796 C -4.544 -26.796 -2.949 -26.381 -1.769 -25.549 C -.59 -24.718 0 -23.587 0 -22.155 C 0 -21.111 -.213 -20.271 -.638 -19.633 C -1.064 -18.994 -1.798 -18.435 -2.842 -17.95 C -3.886 -17.468 -5.414 -16.955 -7.424 -16.414 C -10.672 -15.563 -13.021 -14.423 -14.471 -12.991 C -15.921 -11.562 -16.646 -9.743 -16.646 -7.54 C -16.646 -5.954 -16.173 -4.515 -15.225 -3.219 C -14.278 -1.924 -12.963 -.919 -11.281 -.202 C -9.599 .513 -7.714 .87 -5.626 .87 C -3.538 .87 -1.663 .58 0 0 " fill="#ffffff"/>
</g>
</g>
</g>
</svg>
